<svg xmlns="http://www.w3.org/2000/svg" width="456" height="336">
    <style>
        line, path, circle, rect, polygon{stroke:black;stroke-width:2;stroke-opacity:1;fill-opacity:1;stroke-linecap:round;stroke-linejoin:miter;}text{font-family:Iosevka Fixed, monospace;font-size:14px;}rect.backdrop{stroke:none;fill:white;}.broken{stroke-dasharray:8;}.filled{fill:black;}.bg_filled{fill:white;}.nofill{fill:white;}.end_marked_arrow{marker-end:url(#arrow);}.start_marked_arrow{marker-start:url(#arrow);}.end_marked_diamond{marker-end:url(#diamond);}.start_marked_diamond{marker-start:url(#diamond);}.end_marked_circle{marker-end:url(#circle);}.start_marked_circle{marker-start:url(#circle);}.end_marked_open_circle{marker-end:url(#open_circle);}.start_marked_open_circle{marker-start:url(#open_circle);}.end_marked_big_open_circle{marker-end:url(#big_open_circle);}.start_marked_big_open_circle{marker-start:url(#big_open_circle);}
        <!--separator-->
        
    </style>
    <defs>
        <marker id="arrow" viewBox="-2 -2 8 8" refX="4" refY="2" markerWidth="7" markerHeight="7" orient="auto-start-reverse">
            <polygon points="0,0 0,4 4,2 0,0"></polygon>
        </marker>
        <marker id="diamond" viewBox="-2 -2 8 8" refX="4" refY="2" markerWidth="7" markerHeight="7" orient="auto-start-reverse">
            <polygon points="0,2 2,0 4,2 2,4 0,2"></polygon>
        </marker>
        <marker id="circle" viewBox="0 0 8 8" refX="4" refY="4" markerWidth="7" markerHeight="7" orient="auto-start-reverse">
            <circle cx="4" cy="4" r="2" class="filled"></circle>
        </marker>
        <marker id="open_circle" viewBox="0 0 8 8" refX="4" refY="4" markerWidth="7" markerHeight="7" orient="auto-start-reverse">
            <circle cx="4" cy="4" r="2" class="bg_filled"></circle>
        </marker>
        <marker id="big_open_circle" viewBox="0 0 8 8" refX="4" refY="4" markerWidth="7" markerHeight="7" orient="auto-start-reverse">
            <circle cx="4" cy="4" r="3" class="bg_filled"></circle>
        </marker>
    </defs>
    <rect class="backdrop" x="0" y="0" width="456" height="336"></rect>
    <text x="154" y="44" >Solana</text>
    <text x="210" y="44" >Runtime</text>
    <text x="34" y="92" >Program</text>
    <text x="186" y="92" >BPF</text>
    <text x="322" y="92" >Executable</text>
    <text x="34" y="108" >Author</text>
    <text x="186" y="108" >Bytecode</text>
    <text x="322" y="108" >Account</text>
    <line x1="140" y1="112" x2="140" y2="240" class="solid"></line>
    <text x="186" y="124" >Verifier</text>
    <text x="106" y="140" >`</text>
    <text x="274" y="140" >`</text>
    <text x="410" y="140" >`</text>
    <line x1="364" y1="144" x2="364" y2="160" class="solid"></line>
    <text x="362" y="172" >`</text>
    <text x="250" y="188" >LoadAccounts</text>
    <text x="194" y="236" >BPF</text>
    <text x="322" y="236" >BPF</text>
    <text x="194" y="252" >Loader</text>
    <text x="322" y="252" >Interpreter</text>
    <text x="106" y="284" >`</text>
    <text x="274" y="284" >`</text>
    <text x="418" y="284" >`</text>
    <text x="442" y="316" >`</text>
    <text x="42" y="252" >Client</text>
    <g>
        <path d="M 144,24 A 4,4 0,0,0 140,28" class="nofill"></path>
        <line x1="140" y1="28" x2="140" y2="96" class="solid"></line>
        <line x1="144" y1="24" x2="440" y2="24" class="solid"></line>
        <path d="M 440,24 A 4,4 0,0,1 444,28" class="nofill"></path>
        <line x1="444" y1="28" x2="444" y2="304" class="solid"></line>
    </g>
    <g>
        <path d="M 24,72 A 4,4 0,0,0 20,76" class="nofill"></path>
        <line x1="20" y1="76" x2="20" y2="132" class="solid"></line>
        <line x1="24" y1="72" x2="104" y2="72" class="solid"></line>
        <path d="M 104,72 A 4,4 0,0,1 108,76" class="nofill"></path>
        <line x1="108" y1="76" x2="108" y2="128" class="solid"></line>
        <line x1="108" y1="104" x2="160" y2="104" class="solid"></line>
        <polygon points="160,100 168,104 160,108" class="filled"></polygon>
        <path d="M 20,132 A 4,4 0,0,0 24,136" class="nofill"></path>
        <line x1="24" y1="136" x2="104" y2="136" class="solid"></line>
    </g>
    <g>
        <path d="M 176,72 A 4,4 0,0,0 172,76" class="nofill"></path>
        <line x1="172" y1="76" x2="172" y2="132" class="solid"></line>
        <line x1="176" y1="72" x2="272" y2="72" class="solid"></line>
        <path d="M 272,72 A 4,4 0,0,1 276,76" class="nofill"></path>
        <line x1="276" y1="76" x2="276" y2="128" class="solid"></line>
        <line x1="276" y1="104" x2="296" y2="104" class="solid"></line>
        <polygon points="296,100 304,104 296,108" class="filled"></polygon>
        <path d="M 172,132 A 4,4 0,0,0 176,136" class="nofill"></path>
        <line x1="176" y1="136" x2="272" y2="136" class="solid"></line>
    </g>
    <g>
        <path d="M 312,72 A 4,4 0,0,0 308,76" class="nofill"></path>
        <line x1="308" y1="76" x2="308" y2="132" class="solid"></line>
        <line x1="312" y1="72" x2="408" y2="72" class="solid"></line>
        <path d="M 408,72 A 4,4 0,0,1 412,76" class="nofill"></path>
        <line x1="412" y1="76" x2="412" y2="128" class="solid"></line>
        <path d="M 308,132 A 4,4 0,0,0 312,136" class="nofill"></path>
        <line x1="312" y1="136" x2="408" y2="136" class="solid"></line>
    </g>
    <g>
        <path d="M 232,168 A 4,4 0,0,0 228,172" class="nofill"></path>
        <line x1="228" y1="172" x2="228" y2="196" class="solid"></line>
        <line x1="232" y1="168" x2="360" y2="168" class="solid"></line>
        <polygon points="224,196 232,196 228,208" class="filled"></polygon>
    </g>
    <g>
        <path d="M 24,216 A 4,4 0,0,0 20,220" class="nofill"></path>
        <line x1="20" y1="220" x2="20" y2="276" class="solid"></line>
        <line x1="24" y1="216" x2="104" y2="216" class="solid"></line>
        <path d="M 104,216 A 4,4 0,0,1 108,220" class="nofill"></path>
        <line x1="108" y1="220" x2="108" y2="272" class="solid"></line>
        <line x1="108" y1="248" x2="160" y2="248" class="solid"></line>
        <polygon points="160,244 168,248 160,252" class="filled"></polygon>
        <path d="M 20,276 A 4,4 0,0,0 24,280" class="nofill"></path>
        <line x1="24" y1="280" x2="104" y2="280" class="solid"></line>
    </g>
    <g>
        <path d="M 176,216 A 4,4 0,0,0 172,220" class="nofill"></path>
        <line x1="172" y1="220" x2="172" y2="276" class="solid"></line>
        <line x1="176" y1="216" x2="272" y2="216" class="solid"></line>
        <path d="M 272,216 A 4,4 0,0,1 276,220" class="nofill"></path>
        <line x1="276" y1="220" x2="276" y2="272" class="solid"></line>
        <line x1="276" y1="248" x2="296" y2="248" class="solid"></line>
        <polygon points="296,244 304,248 296,252" class="filled"></polygon>
        <path d="M 172,276 A 4,4 0,0,0 176,280" class="nofill"></path>
        <line x1="176" y1="280" x2="272" y2="280" class="solid"></line>
    </g>
    <g>
        <path d="M 312,216 A 4,4 0,0,0 308,220" class="nofill"></path>
        <line x1="308" y1="220" x2="308" y2="276" class="solid"></line>
        <line x1="312" y1="216" x2="416" y2="216" class="solid"></line>
        <path d="M 416,216 A 4,4 0,0,1 420,220" class="nofill"></path>
        <line x1="420" y1="220" x2="420" y2="272" class="solid"></line>
        <path d="M 308,276 A 4,4 0,0,0 312,280" class="nofill"></path>
        <line x1="312" y1="280" x2="416" y2="280" class="solid"></line>
    </g>
    <g>
        <line x1="140" y1="256" x2="140" y2="308" class="solid"></line>
        <path d="M 140,308 A 4,4 0,0,0 144,312" class="nofill"></path>
        <line x1="144" y1="312" x2="440" y2="312" class="solid"></line>
    </g>
</svg>