<svg xmlns="http://www.w3.org/2000/svg" viewBox="0 0 400 400"><g transform="matrix(2,0,0,2,0,0)"><g><g><path d="M49.47,124.73c-.07.45.26.45.58.19,1.49-1.68,3.76-2.39,5.38-3.82a7.75,7.75,0,0,1,2-1.23c2.21-.83,2.16,1.41,1.43,2.2-.91,1-2,1.88-3,2.79-7.54,8-6.47,7.35-11.72,11.79-1,.84-2,.51-2.34-.85a13.19,13.19,0,0,1-.12-3.56c.12-.71.12-1.68-.26-2s-1.1.52-1.49.85a52.92,52.92,0,0,0-4.21,3.69c-6.74,6.39-12.44,8-16.71,11.59-.5.44-3.06-5.37-3.24-7.77-.07-.58.45-1,.91-1.36,2.65-1.69,5.37-3.24,8-5,3.36-2.27,6.86-4.34,10-6.86,1.23-1,2.79-1.49,4.21-2.4,1.94-1.3,4-2.46,6.09-3.69,1.79-1.2,4.29-1.51,4.14.58C49,122.32,49.7,123.13,49.47,124.73Z" fill="#fef0bb"></path><path d="M148.82,77.38a1.7,1.7,0,0,0-2.33-1.29c-.65.21-1.43.52-2.34.78.72-1.23,1.3-2.21,1.95-3.24a7.11,7.11,0,0,0,1.29-3.24.86.86,0,0,0-1-1.1c-.72.06-1.36.13-2.27.19,1-.84,1-2,1.68-2.78.26-.33.78-.91.26-1.17a1,1,0,0,0-1.42.46,1.35,1.35,0,0,0-.39.58c-2.13,4.05-2.83,4.59-2.07,5.44.58.65,1.1.19,1.68,0,.89-.3,1-.14.45.65A45.39,45.39,0,0,0,141.11,78a1.58,1.58,0,0,0,.26,2c.58.51,1.29.19,1.88-.26a1.94,1.94,0,0,1,1.68-.59c-.71,1.75-2,3-2.78,4.54-.62,1.15-1.72,2.2-1.75,3.62,0,.59,0,1.11.52,1.36s.9-.06,1.36-.25a4.23,4.23,0,0,1,2-.78c-3.57,5.26-2.82,3.43-4.72,6.41a1.45,1.45,0,0,0,.06,1.75c.33.52.9.12,1.36-.07l1.3-.54c-.79,1.61-1.14,1.2-3.37,5.14-.33.58-.67,1.11-.39,1.75.37.85,1,.39,1.68.45-.19.26-.32.52-.45.72-1.17,1.29-1.88,2.85-3,4.21-.45.71-.39,1.49.39,1.74s.84.59.26,1.17a.48.48,0,0,0-.07.58c.13.13.26.07.39,0a19.2,19.2,0,0,0,4.67-3.88,1,1,0,0,0,.06-1.36.88.88,0,0,0-1.16-.2.44.44,0,0,1-.59-.13c.78-.9,1.43-1.87,2.27-2.78a11.41,11.41,0,0,0,2.07-2.92,1.55,1.55,0,0,0,0-1.42c-.42-.74-1.34-.52-2.14-.19,1.36-1.24,1.88-2.92,2.92-4.28.39-.52.52-.91.13-1.42s-.65-.91-1.3-.65c-.19.06-.52.13-.71-.07,1.23-1.87,2.66-3.62,3.76-5.57a1.16,1.16,0,0,0-.13-1.49c-.33-.45-.72-.38-1.23-.26-.72.26-1.56.46-2.59.72,1.55-2.2,2.78-4.34,4.27-6.22C148.36,78.42,148.87,78,148.82,77.38Z" fill="#fef0bb"></path><path d="M117.15,154.46c1.1-5.51.4-6.94,3.17-16.52a28.81,28.81,0,0,1,3-7.9c.78-1.3,1.24-2.92,2-4.28a47.19,47.19,0,0,1,4.21-5.89c3.41-3.93,4.15-5.6,12.44-10.49a18.63,18.63,0,0,1,2.52-1.17,3.06,3.06,0,0,1,1.3-.13c1.19.14,1.53,1.82.45,1.82-1.81.19-3,1.49-4.4,2.39a54.08,54.08,0,0,0-4.73,3.56,32.58,32.58,0,0,0-4.53,4.86,58.41,58.41,0,0,0-3.89,5.38c-.91,1.49-1.55,3.11-2.46,4.6a51.83,51.83,0,0,0-3.3,8.55c-.77,2.43-3,12.53-3,18,0,1-.52,1.36-1.3,1.36s-1.16-.58-1.29-1.36S117.41,155.43,117.15,154.46Z" fill="#fef0bb"></path><path d="M124.92,106.53a2,2,0,0,1,.84.19c.26.13.58.26.52.65s-.39.26-.58.39c-3.31.91-6.35,2.59-9.46,3.89a29.84,29.84,0,0,0-12.82,10.23c-2.33,3.17-3.89,6.73-5.77,10.1-.77,1.43-1.29,3.11-1.94,4.6a30.84,30.84,0,0,0-2.66,10.17,39.56,39.56,0,0,0-.38,4.86c0,1.1-1.15,1.16-1.82.71a3,3,0,0,1-.9-2.07c0-1,.71-7.52.84-8.23,2.15-8.5,8.09-21.1,14.7-26.68a36.47,36.47,0,0,1,10.75-6.22,51.79,51.79,0,0,1,5.18-2A17.5,17.5,0,0,0,124.92,106.53Z" fill="#fef0bb"></path><path d="M159.25,88.65c.77-1.16,2.07-2.13,1.35-4-.19-.51-.32-.64-.84-.64s-1.16.51-1.94.45c.39-.65.66-1.22,1-1.81s1-1.24.9-2a5.51,5.51,0,0,0-.84-2.72c-.39-.52-1.16.13-1.81.06-1-.32.35-1.84.45-1.94,1-.92.71-1.88.26-3.17-1,2.2-2.62,3.84-3.76,5.82a1.59,1.59,0,0,0,.07,1.69c.31.59.91.32,1.42.19s1.6-.9,1.95-.39a37.29,37.29,0,0,1-2.92,5.19,1.41,1.41,0,0,0,.26,1.87,1.11,1.11,0,0,0,1.69.07c.38-.2.64-.39,1-.2a.64.64,0,0,1-.19.59l-3.89,5.83c-.32.45-.78.9-.39,1.55a1.46,1.46,0,0,0,1.7.59c-.71,1.13-1.65,2-2.35,3.1a1.17,1.17,0,0,0,0,1.69,1.22,1.22,0,0,0,1.82.19,1,1,0,0,1,1.1-.19c-1.1,1.23-2.14,2.46-3.18,3.69-.45.52-1,1.1-.58,1.88s1,.71,1.58.71-1,1.33-1.58,3.17c-.19.46-.26,1,.2,1.3s.85.2,1.29-.26c1.12-1.15,1.75-2.66,2.79-3.89a6.61,6.61,0,0,0,.84-1.55,1,1,0,0,0-.52-1.49c-1-.33-.39-.71-.13-1.1a20,20,0,0,0,2.33-3.18,1.27,1.27,0,0,0-.9-1.87,6.53,6.53,0,0,0-1.17,0c.52-1.36,1.68-2.08,2.33-3.24s.26-2-1.16-2c-.26,0-.59.06-.72-.07s.07-.58.2-.77C157.76,90.73,158.53,89.76,159.25,88.65Z" fill="#fef0bb"></path><path d="M70.19,128.55A26.85,26.85,0,0,1,69,133.41c-1.29,3.3-2.14,6.73-3.11,10.1a1.29,1.29,0,0,1-1.75.91c-2.14-1-5.66-.08-4.85-2.79a78.8,78.8,0,0,1,3.36-8.94c.81-1.94,1.92-5.07,3.44-6.93.19-.19,2.39.46,3.17.91A1.82,1.82,0,0,1,70.19,128.55Z" fill="#fef0bb"></path><path d="M127,46.08c1.8.1,4.1.69,6.06,1,1.68.26,7.38,1.3,8.42,1.82a2.79,2.79,0,0,1,1,4,2.58,2.58,0,0,1-2.53.84c-3.37-.52-12.31-2-13.41-2.27C123.37,51,122.38,45.83,127,46.08Z" fill="#fef0bb"></path><path d="M126,75.57c-.58-.13-.78.13-1.1.26-1.34.45-1.59-.35-1.49-1.1a9.27,9.27,0,0,1,1.23-3.37c-.65-.06-.78.58-1.36.65-.84.13-1.42-.13-1.36-1a10,10,0,0,1,1-3.82c.25-.58.9-.71,1.55-1-.38,2.07-.79,2.47-.52,2.65s.59-.13.84-.26a12.3,12.3,0,0,1,1.24-.65c.45-.13.9-.51,1.29.13s.52,1.1.06,1.56a10.45,10.45,0,0,0-1.29,2.72c-.06.19-.2.45-.06.58s.45.07.58,0c1.49-.45,2.07.2,1.55,1.75-1.72,5.38-3.65,6-1.88,6.22a1.06,1.06,0,0,1,.85,1.49,22.13,22.13,0,0,1-2.59,5,1.18,1.18,0,0,1-.39-1.1A12.44,12.44,0,0,0,123,81.72a1.27,1.27,0,0,1,.26-1.36C124.6,78.87,124.92,77.19,126,75.57Z" fill="#fef0bb"></path><path d="M133.92,82.31c-.58-.13-1.1.58-1.49,0a1.46,1.46,0,0,1-.06-1.82c.71-1.49,1.36-3,2-4.47a2,2,0,0,0,.2-.9,7.79,7.79,0,0,1-1.17.71c-.26.13-.71.45-1.1,0s-.52-.84-.26-1.36c1.36-2.53,2.46-5.25,3.63-7.84.84-1.89,1.94-1.86,1.17.46-.59,1.68-1.3,3.3-2,5.11a9.36,9.36,0,0,0,1.29-.45c.52-.19,1-.26,1.36.13a1.32,1.32,0,0,1,.26,1.55c-.58,1.3-1.16,2.66-1.75,4-.13.26-.45.65.26.84a1.11,1.11,0,0,1,.72,1.3,11.44,11.44,0,0,1-3.18,6.21c-.26.26-.71.59-1.16.2a.93.93,0,0,1-.2-1.3A10.31,10.31,0,0,0,133.92,82.31Z" fill="#fef0bb"></path><path d="M128.61,99.28a12,12,0,0,1,1.23-1.75c-.58-.07-1,.26-1.42-.13s-.65-.84-.13-1.43a46.09,46.09,0,0,0,3.56-5.63c.19-.39.26-.91.78-.78s.38.84.19,1.23c-.79,1.85-1.09,2.24-1.62,3.3.58.2.91-.19,1.3-.38s.9-.39,1.36.13A1,1,0,0,1,134,95.2a20.91,20.91,0,0,1-1.43,2.52,1.54,1.54,0,0,1,.91,2.53c-.84,1.16-1.23,2.46-2,3.62s-1.36,2.27-2.07,3.31c-.74,1.48-2.9,1.56-2-.65.67-1.71,2.65-4.17,2.8-4.92C130.17,101.61,127.26,101.86,128.61,99.28Z" fill="#fef0bb"></path><path d="M144.61,44.29c-2.14,0-3.24-1-3.31-3.63-.06-1.29,1.75-2.59,3.63-2.65,1.17,0,2.66,1.94,2.59,3.43A2.61,2.61,0,0,1,144.61,44.29Z" fill="#fef0bb"></path><path d="M130,38.65c0,2.27-1.11,3.24-3.24,3.18-1.56,0-2.92-1.75-2.79-3.69a2.78,2.78,0,0,1,2.72-2.66A3.16,3.16,0,0,1,130,38.65Z" fill="#fef0bb"></path><path d="M27.45,90.79c-2.3,1.75-4.77-1-3.57-4.4a22.66,22.66,0,0,1,1.49-2.79,2.28,2.28,0,0,1,2.53-1,2,2,0,0,1,1.81,2A6.37,6.37,0,0,1,27.45,90.79Zm.45-3a5,5,0,0,0,.39-2.59c-.07-.84-.58-1.1-1.3-.71A4.54,4.54,0,0,0,25.31,89c.26.84.78,1,1.42.46A3.7,3.7,0,0,0,27.9,87.81Z" fill="#fef0bb"></path><path d="M35.54,87.94A7,7,0,0,1,34,90.21a2,2,0,0,1-3.37-.78c-.78-2.07-.13-4,.91-5.76a2.06,2.06,0,0,1,2.59-1.23A2.5,2.5,0,0,1,36.06,85,11.88,11.88,0,0,1,35.54,87.94Zm-1.68-.39a3.79,3.79,0,0,0,.45-2.13c0-.52,0-1.3-.52-1.23s-1.23.06-1.42.77a6.11,6.11,0,0,0-.52,1.88c-.06.84-.39,2.14.58,2.4C33.21,89.37,33.6,88.07,33.86,87.55Z" fill="#fef0bb"></path><path d="M21.85,95.51c1.48-.6,6.33-2,10.91-3.42a7.52,7.52,0,0,1,1.68-.26c.26,0,.52,0,.65.26a.62.62,0,0,1-.26.64c-.39.2-.71.46-1.17.65a98.81,98.81,0,0,1-10.9,3.25C21,97.05,20.45,96.07,21.85,95.51Z" fill="#fef0bb"></path><path d="M21.75,86.19c-.52.2-.91.59-1.3.13s0-.84.26-1.23c.45-.65.91-1.36,1.36-2.07a.87.87,0,0,1,1.62.58c-.19,2.53-.45,5.05-.65,7.51-.06.52-.13,1-.77,1s-.72-.58-.78-1.1C21.42,89.43,21.68,87.81,21.75,86.19Z" fill="#fef0bb"></path><path d="M35,95.13c-.38.19-.71.52-1.1.71a86.6,86.6,0,0,1-8.87,3.31c-.45.13-1,.26-1.23-.26s.26-.72.71-.91c2.72-1.17,5.51-2.27,8.29-3.37a4.26,4.26,0,0,1,1.82-.19C35,94.48,35.15,94.61,35,95.13Z" fill="#fef0bb"></path></g><g><path d="M123.23,186.77c-.71-2.59.65-4.92,1.69-7.25.35-.69.1-1.64,1.16-1.49,2,.39,3.83.91,5.83,1.17a7.3,7.3,0,0,1,2.59.58c1.88.84,3.63-.07,5.32-.71s3.43-1.49,5.18-2.27,3.62-1.75,5.37-2.59c1.49-.71,3.18-1.36,4.67-2.07,2.33-1.1,4.53-2.33,6.86-3.31,3.56-1.55,6.87-3.69,10.23-5.57,2.14-1.16,4.6-1.75,6.74-3s3.88-1.1,6-.19c2.72,1,5.31,2.26,8,3.36,1.14.38.14,1.22-.52,1.3-2.45.17-5.74,1.9-8.35,3-3.18,1.23-6.29,2.72-9.52,3.82-11,3.73-14,5.66-20.54,7.45-1.49.45-2.91,1.36-4.4,1.94a15.56,15.56,0,0,0-4.6,2.59,7.41,7.41,0,0,0-3.11,6.09c.07,1.1,0,2.27,0,3.3a1.81,1.81,0,0,1-2.39,1.75c-2.79-1.1-5.83-1.49-8.81-2.27-1.49-.39-3-.71-4.41-1.23-.77-.26-1.68-.19-2.46-.45-.39-.13-.58-.19-.58-.58C123.36,188.91,123,187.94,123.23,186.77Z" fill="#FFC7D6"></path><path d="M137.74,109.9c-.39.71-1,.64-1.49.9a34.07,34.07,0,0,0-5.5,4.6c-2.92,2.66-4.6,6.16-6.54,9.46a49.36,49.36,0,0,0-3.37,6.28c-1.33,2.87-.41,4.44-2.59,4a50,50,0,0,0-9.33-1.29c-1.88-.13-3.69-.65-5.5-.65a21.91,21.91,0,0,1-4.08-.52c-.72-.13-.85-.26-.46-.91,4.73-7.15,9.62-12.36,16.78-16.84a45,45,0,0,1,8.81-4.4c1.1-.39,2.33-.52,3.36-.78.78-.19,1.75-.26,2.27-1.1.26-.45.58-.06.84,0C133.14,108.93,135.41,109.64,137.74,109.9Z" fill="#FFC7D6"></path><path d="M123.43,106.46c-3.72,1.12-.4-.07-10,3.24-6.31,2.37-6.77,3.48-9.46,5.83-.9.91-1.94,1.75-2.78,2.72-3.84,4.65-4.87,6.71-8.23,13.08-.19.39-.45.26-.64.39a13.38,13.38,0,0,1-2.27-.19c-1.55-.26-3.17-.2-4.73-.39a4.32,4.32,0,0,1-3.43-2.53,10.29,10.29,0,0,1-1.17-4c-.12-1.81.78-3.3,1.43-4.85.52-1.17,1.49-2,1.55-3.37,0-.52.65-.91,1.17-1.17a34.12,34.12,0,0,1,7.71-2.39c3-.52,5.89-1.43,8.93-1.82,2.43-.21,2.51-1,12.57-3.11,1.36-.26,2.65-.71,4-1.1,1.82-.45,3.63-.26,5.31-.77C123.43,106.14,123.43,106.27,123.43,106.46Z" fill="#FFC7D6"></path><path d="M178.48,114.3a45.21,45.21,0,0,0-7.64,1.69c-3.56.89-4,.37-9.78,2.2-1.93.61-9.68,2-9.78,2.07a59.12,59.12,0,0,0-5.7,1.68c-.6.18-6.2,1.08-7.38,3.31a17.58,17.58,0,0,0-1.75,10.62c.19,1.1-1.17,2.07-2.4,1.81-3.76-.91-6.65-1-7.25-1.23s-.78-.52-.46-1.1c3.6-6.17,5.39-9.2,12.37-15.87a35,35,0,0,1,7.71-5.7,5,5,0,0,1,2.53-.45,25.1,25.1,0,0,0,7.19-1.55,15.42,15.42,0,0,1,8.93-.13c2.72.64,5.64,1,8.36,1.68A17.07,17.07,0,0,1,178.48,114.3Z" fill="#FFC7D6"></path><path d="M99.85,184.83c-3.3-.71-6.47-1.81-9.71-2.4A3.77,3.77,0,0,1,87.68,181a11.49,11.49,0,0,1-2.53-4.6c-.39-2,1.36-5.5,3.31-6.28.71-.26,1.29-.26,1.36.65a.41.41,0,0,0,.45.45c1.55.07,3.11.52,4.66.45,1.36,0,2.14.78,1.88,2.14-.39,1.81,0,3.17,1.75,4a.5.5,0,0,1,.39.51C98.88,180.56,99.66,182.63,99.85,184.83Z" fill="#FFC7D6"></path><path d="M18.44,47.2a29.29,29.29,0,0,1-4.85.13c-2.14-.13-4.28-.51-5.7-2.46-.78-1.16-1.1-2.39-.26-3.43a10,10,0,0,1,4.21-3.63c.65-.26,1.23-.58,1.94-.06a1.2,1.2,0,0,0,.84.06,7.59,7.59,0,0,1,3.82.07,6.25,6.25,0,0,1,4,2,2.51,2.51,0,0,1,.58,2c-.06,1.49.26,3.31-1.36,4.34C20.65,46.94,19.48,46.88,18.44,47.2Z" fill="#FFC7D6"></path><path d="M46.62,18.58a15.9,15.9,0,0,1-4.6-.46,33.53,33.53,0,0,0-5-.45h-1.1c-.58,0-.78-.45-.91-.91s.26-.71.72-.77a9.1,9.1,0,0,1,2.65-.46c3.89,0,7.71.59,11.6.78,2.33.13,4.53.2,6.86.52,1.43.19,3-.07,4.4.78.59.38,1.3.64,1.17,1.29s-1,.71-1.68.71a41.11,41.11,0,0,1-5.64-.38c-1.29-.13-2.65-.07-4-.26C49.47,18.84,47.78,18.38,46.62,18.58Z" fill="#FFC7D6"></path><path d="M35.15,25.05c3.11.26,6.22.13,9.4.39,2.13.13,4.33.07,6.47.39s4.21.39,6.28.58a4.32,4.32,0,0,1,2,.78c.58.39.58.78-.13,1.1a5.11,5.11,0,0,1-2,.52c-4.6-.19-9.2-1.36-13.86-1.17a23.64,23.64,0,0,1-3.63-.51,1.85,1.85,0,0,0-.84-.07c-1.68.39-3.24-.39-4.86-.45-.51,0-1.1-.2-1.1-.78s.72-.65,1.23-.71A5.86,5.86,0,0,1,35.15,25.05Z" fill="#FFC7D6"></path><path d="M35,29.78c2.78-.39,5.63.07,8.42.2,2.4.13,4.73.19,7.12.51a46.68,46.68,0,0,0,6.22.39,2.69,2.69,0,0,1,1.49.39c.39.2.84.46.78.91a1.09,1.09,0,0,1-1.17.91c-4.58.24-7.92-.53-12.76-.85-4-.19-8-.64-12-1-.52-.07-1-.2-.91-.78s.39-.78,1-.71A7.89,7.89,0,0,0,35,29.78Z" fill="#FFC7D6"></path><path d="M51.67,38c-4.34-.2-8.74-.52-13.15-.78-2.26-.13-4.34-.71-6.54-.71a.69.69,0,0,1-.78-.59.64.64,0,0,1,.59-.77,4.87,4.87,0,0,1,2.72-.2,6.61,6.61,0,0,0,3.56.13,18.29,18.29,0,0,1,3.76.2c3,.13,6,.52,8.93.45,1.82-.06,3.63.39,5.38.45.65,0,1.68.39,1.55,1.23s-1.1.85-1.81.85C54.58,38.4,53.22,37.88,51.67,38Z" fill="#FFC7D6"></path><path d="M45.71,23.18l-10-.65c-.58-.07-1.23-.26-1.23-.91s.78-.71,1.23-.71a83.47,83.47,0,0,1,12,.32c2.72.13,5.31.85,8.09.78a2.91,2.91,0,0,1,2.27.84c.45.52.39.84-.26,1a7.88,7.88,0,0,1-3.43.39C44.25,23,45.87,23.19,45.71,23.18Z" fill="#FFC7D6"></path><path d="M34.18,44.1c2.14,0,4.21.12,6.16-.07a69.24,69.24,0,0,1,8.16.13,44.82,44.82,0,0,1,5.89.39c.78.13,1.88.19,1.81,1.1s-1.23.65-1.94.65a22.15,22.15,0,0,1-5.51-.2c-1-.26-2.07.13-3.17.07-1.81-.07-3.63-.52-5.5-.2a7.55,7.55,0,0,1-2.72-.13c-2-.45-4.08.07-6.16-.38-.39-.07-.84.06-.9-.52s.51-.39.77-.52C32.11,43.77,33.28,44.35,34.18,44.1Z" fill="#FFC7D6"></path><path d="M52.12,42.8c-2-.39-4.08.06-6.15-.45a31.16,31.16,0,0,0-5.51-.59c-2-.13-4-.26-6.15-.26-.78,0-1.68-.06-2.46-.06A.85.85,0,0,1,31,40.6c-.07-.46.26-.71.71-.78,1.56,0,3.11-.45,4.66-.06a11.9,11.9,0,0,0,2.6.06,69.81,69.81,0,0,1,8.93.71c1.23.2,2.46-.19,3.69,0a3.38,3.38,0,0,1,1.69,1.1.5.5,0,0,1,0,.59A1.45,1.45,0,0,1,52.12,42.8Z" fill="#FFC7D6"></path><path d="M22,109.9c4.13-.21,3.83-.82,8.68.06.38.07.71.13.64.52s-.45.39-.77.45c-.8.2-2.1-.85-8.49-.19-.26,0-.65.13-.71-.2S21.55,110.09,22,109.9Z" fill="#FFC7D6"></path><path d="M19.09,106.79a18.89,18.89,0,0,1,7.52-.91c1.48.07,3.1.07,4.59.2.59.06.72-.13.91-.65,1.3-3.56,4-5.77,7.12-7.64a1.63,1.63,0,0,1,2.27.77c2.14,4.08,4.92,7.84,6.93,12,.26.65.13.78-.26,1.1-1.55,1.1-3.11,2.14-4.66,3.24-4.27,3.1-3.34,4.86-5.83,4.86-3.17.06-6.41.19-9.59.38a8.41,8.41,0,0,0-4.27,1.11.94.94,0,0,1-1.49-.52c-1.88-4-3.69-7.84-5.57-11.85-.39-.72.2-1.17.71-1.43A5,5,0,0,1,19.09,106.79ZM37,118.12a72.59,72.59,0,0,1-5-10.1.89.89,0,0,0-.91-.58c-2-.07-4.08-.2-6.15-.39a20.32,20.32,0,0,0-6,.71c-.91.19-1.17.71-.78,1.49,1.55,3.24,3.24,6.48,4.86,9.71.26.59.58.59,1.1.46a15.16,15.16,0,0,1,5.05-.91Zm1.75.2c1.88-3.24,4.92-5.18,7.71-7.19.52-.39.45-.65.19-1.1-1.94-4-4.53-7.58-6.41-11.66-.45.26-.84.58-1.29.84-2.08,1.68-4.28,3.3-5.64,5.7a3.07,3.07,0,0,0,0,3.24C34.69,110.5,35.51,113.47,38.78,118.32Z" fill="#FFC7D6"></path><path d="M23.82,113.59a35.09,35.09,0,0,1,6.87.06c.25.07.71.13.64.59s-.45.51-.77.51l-4.21-.19H23.89c-.26,0-.78.19-.85-.26S23.5,113.78,23.82,113.59Z" fill="#FFC7D6"></path><path d="M39.82,102.13a.61.61,0,0,1-.2.58c-1.55,1.55-3,3.3-4.4,5-.2.19-.45.64-.78.45s-.13-.65.07-.91a23.35,23.35,0,0,1,4.4-5C39.23,101.93,39.49,101.74,39.82,102.13Z" fill="#FFC7D6"></path><path d="M41,105.62a.84.84,0,0,1-.26.59,41.56,41.56,0,0,0-3.23,4.59c-.2.26-.46.85-.85.59s-.06-.72.07-1.1a17.13,17.13,0,0,1,3.37-4.67C40.34,105.49,40.66,105.23,41,105.62Z" fill="#FFC7D6"></path><path d="M43.25,109.7l-3.56,3.76c-.26.26-.65.65-1,.45s0-.71.26-1a21.93,21.93,0,0,1,3.63-3.7C43.24,108.72,43.77,109.18,43.25,109.7Z" fill="#FFC7D6"></path><path d="M50.05,146.3c-.91,2.52-2.53,4.46-3.82,6.47-1.1,1.75-2.27,3.37-3.56,5a3.1,3.1,0,0,1-1.69,1.3,2.62,2.62,0,0,1-3-.71,2.94,2.94,0,0,1-.13-3.31c2.33-3.17,4.53-6.41,6.93-9.58A63,63,0,0,1,50.11,140c.2-.2.52-.46.85-.26a.52.52,0,0,1,.26.78A42.36,42.36,0,0,1,50.05,146.3Zm-1.49,1.1c-.71-.59-1.42-1.1-2.07-1.56-.46-.39-.78-.39-1.1.2-.34.9-1.53,2-5.12,7.44-.91,1.43-.91,1.69.39,2.79.82.78,1.07,1,1.47.53S48.39,147.65,48.56,147.4Zm-1.88-2.72,2,1.74c.25.2.51.39.58-.12.19-1,.39-2,.65-3.11.06-.46-.13-.59-.46-.78s-.45.06-.58.19C48.17,143.32,47.46,144,46.68,144.68ZM41.5,157.76a4.66,4.66,0,0,1-2.72-2.46,2,2,0,0,0,.07,2.59C39.43,158.6,40.46,158.6,41.5,157.76Z" fill="#FFC7D6"></path></g><g><path d="M85.8,106.4c-2.46-.45-5.31-.39-8.16-1.17A74.25,74.25,0,0,1,70,102.9a2.74,2.74,0,0,1-1.75-1.75,63.91,63.91,0,0,0-2.92-6.86A144.68,144.68,0,0,1,58.73,79c-1.1-2.78-2.4-5.57-3.56-8.29A39.05,39.05,0,0,1,53.94,67a12.49,12.49,0,0,0-1.11-2.27c-.45-.78-1.16-1.49-.71-2.53.13-.38-.26-.45-.52-.64a2.18,2.18,0,0,1-.45-2.4,2,2,0,0,1,2.46.13c1.49,1.88,3.69,2.33,5.7,3.17.84.39,1.56.78,2.46,1.1,3.5,1.46,10.21-.1,17-.64,2.72-.2,5.38-.59,8.16-.78C88.78,62,90.72,62,92.67,62c.45,0,.64.12.71.58C94,64.76,94.61,67,95.45,69c1.36,3.24,2.07,6.61,3.24,9.91.58,1.49,1.1,3,1.68,4.53.46,1-.19,1.75-.52,2.53-.06.26-.51.13-.71,0a36,36,0,0,0-5.5-2.27c-.78-.26-1.1,0-1.49.71-1.69,2.4-.91,4.47.52,6.55.58.84-.07,1-.72,1a7.26,7.26,0,0,0-4.27,1.43c-.45.39-.65.64-.45,1.23.38,1.36,1.42,2,2.46,2.72.26.19.58.26.84.45,2.27,1.1,2.39,1.88.26,3.17a4.35,4.35,0,0,0-2.33,3.83C88.52,106.08,87.94,106.4,85.8,106.4Z" fill="#a6eef8"></path><path d="M69.74,49.28A35.94,35.94,0,0,1,58,48c-.45-.06-.45-.39-.39-.71.65-3.17.91-6.48,2-9.65,3.89-11.65,4.34-20.95,5-22.8.13-.52-.2-.78-.71-1-3.43-1.08-13.46-1.71-19.63-1.36-.91.07-1.16-.25-1.16-1.16.06-1.75.06-3.43,0-5.18,0-.78.25-1.1,1.1-1,.1,0,31.63.79,31.73.78.26,0,.91-.13.65.45-.29.76-.3,7.92-.45,9.85-.07.51-.2.71-.78.71-1.43.06-2.92.58-4.41.45-.58-.06-.71.39-.71.84,0,3.57-1.67,15.12-.86,21,.1.78.64.91,1.9.86,1,0,2-.19,3.11-.19.64,0,.9.13.84.84a76.65,76.65,0,0,0-.45,7.71c0,.58-.39.71-.85.71A29.75,29.75,0,0,1,69.74,49.28Z" fill="#a6eef8"></path><path d="M72.65,172.27c.46-2,.65-4,1.88-5.77,3.51-4.84,0-3.46,9.2-11.85,1.16-1.1,2.78-1.42,3.88-2.59.52-.58,1.3.13,1.49.45,1.1,1.3,2.34,1.1,3.63.59,1.56-.65,2.46-.13,2.4,1.42a5.75,5.75,0,0,0,.39,2.33,13.48,13.48,0,0,1,.71,4.21,1.56,1.56,0,0,1-.58,1.43,57.14,57.14,0,0,1-6.74,6.34c-1.1.78-2,1.88-3.11,2.59-2.07,1.36-4.21,2.72-6.28,4C76.8,177.43,71.73,176.77,72.65,172.27Z" fill="#a6eef8"></path><path d="M96.29,176c-.13-.78.39-1.49.59-2.27.9-2.65,2.91-4.66,4.59-6.86a23.48,23.48,0,0,1,5.25-4.54c2.27-1.42,4.4-3.17,7-4.21A1.63,1.63,0,0,0,115,157c.12-.58.64-.65,1.1-.13a1.63,1.63,0,0,1,.38.52c.78,2,2.47,2.91,4.41,3.43a1.76,1.76,0,0,1,1.16,2.46c-1,2.92.37,4.83-2.26,6.93a39.26,39.26,0,0,1-7.13,4.86,68.59,68.59,0,0,1-6.73,3.3,8.38,8.38,0,0,1-3.76.59,23.69,23.69,0,0,1-3.63-.39C96.88,178.35,96.29,177.71,96.29,176Z" fill="#a6eef8"></path><path d="M135.74,147.27c-3.45-.39-7.43-3.29-11.08-3.76-.91-.13-1.36-1.1-1-2.27a12.67,12.67,0,0,0,.78-3.11c.07-.45.45-.77.71-.58,1.23.91,2.66.52,4,.71a41.35,41.35,0,0,0,7.52.46,8.3,8.3,0,0,1,3.56.45.22.22,0,0,1,.19.07c1.43,1.49,3,.77,4.47.06,2.72-1.29,5.64-2.07,8.36-3.3,3.3-1.49,6.73-2.59,10-4,1.36-.58,2.91-.84,4.27-1.36,2.07-.71,4.27-1,6.41-1.68a3,3,0,0,1,3.82,2.26c.2.91-.45,1.24-1.1,1.43-15.95,5.21-6.75,2.32-14.12,4.47-1.36.39-2.65,1-4,1.49-3.63,1.29-7.19,2.52-10.75,3.95S140.46,145,137,146.88A1.41,1.41,0,0,1,135.74,147.27Z" fill="#a6eef8"></path><path d="M112,139.24a8.52,8.52,0,0,0,3.23,1.42,11.26,11.26,0,0,1,2.72.84c1,.46,1,.91.78,2-.26,1.75-1.1,3.3-.65,5.12.2.77-.25,1.23-.77,1.68s-.85.07-1.36-.06c-4.39-1.47,0-.08-12.44-3.83-3.64-1.28-5.46-.37-6.93-4.79a9.45,9.45,0,0,1-.45-2.39c-.13-1.69.58-3.18,1.1-4.73a.71.71,0,0,1,.65-.46c1.1,0,2.26-.19,3.24.46.25.13.58.26.77.13,1.36-.71,2.79-.46,4.28-.2a23.87,23.87,0,0,0,3,.2,59.85,59.85,0,0,1,8.36,1,2.56,2.56,0,0,1,2,2.46V139c0,1.49-.58,1.94-2.13,1.55s-3.11-1.16-4.67-1.49c-.19-.06-.52-.06-.71-.13A.27.27,0,0,1,112,139.24Z" fill="#a6eef8"></path><path d="M113.26,97.53a1.55,1.55,0,0,1-1.75-1.43c-.06-.78.59-1.29,1.3-1.55a123.62,123.62,0,0,0,16.38-6.16c3-1.32,2.81-1.55,8.16-4.92,3-1.94,5.31-4.47,7.9-6.73.39-.26.46-.84.85-1.1s.65-.65,1.16-.2.39.78.13,1.3a15.64,15.64,0,0,1-2.26,3.11,40.39,40.39,0,0,1-9.91,8.48,48.87,48.87,0,0,1-7.9,4.08c-4.21,1.75-8.42,3.3-12.7,4.73A8.08,8.08,0,0,1,113.26,97.53Z" fill="#a6eef8"></path><path d="M99.73,94a7.71,7.71,0,0,1,4.4-2.46,2,2,0,0,1,2.14.72,10.38,10.38,0,0,0,1.16,1.29A1.54,1.54,0,0,1,107,96a2.31,2.31,0,0,0,.19,4.21c.72.46,1.69.59,1.82,1.69.4,2.43-2.34.85-4,2.65a.71.71,0,0,1-.45.13C99.88,105.54,94.28,99.41,99.73,94Z" fill="#a6eef8"></path><path d="M149,35.74c0,.39-.19.39-.52.19a82.8,82.8,0,0,0-15.15-3.49,24.45,24.45,0,0,0-5.7-.52c-.78.06-1.3-.13-.65-1,.12-.18,1.46-4.41,6.93-3.49,3.18.58,6.41,1.16,9.52,2A12.52,12.52,0,0,1,147.72,31c.19.19.51.39.58.58A41.13,41.13,0,0,1,149,35.74Z" fill="#a6eef8"></path><path d="M82.11,138.33c.45-1.1-.26-2.33.13-3.56a5,5,0,0,1,6.09-3.24c.71.19,1.29.84,2.07,1,.45.06.58.64.19,1.1-1,1.49-.71,3.23-.45,4.92.06.58.26,1.16.26,1.68a1.38,1.38,0,0,1-1.75,1.56c-1.68-.26-3.17-.91-4.92-1.1A2.32,2.32,0,0,1,82.11,138.33Z" fill="#a6eef8"></path><path d="M135.74,149.21c-.07.19-.07.45-.13.65-.91,1.55-.78,3.3-.72,5a1.56,1.56,0,0,1-1.94,1.55,23.2,23.2,0,0,0-4.27-1.29,1.45,1.45,0,0,1-1.17-1.3,8.65,8.65,0,0,1-.26-2.91,26.53,26.53,0,0,1,.45-3.76c.13-1,.85-1.36,1.75-.84a8.09,8.09,0,0,0,2.79.58C134.14,147.38,135.35,146.92,135.74,149.21Z" fill="#a6eef8"></path><path d="M159.89,43c3.73.18,5.72,3.83,1.36,10.24-.84,1.29-3.3,1.16-4.34-.13-1.68-2.14-1.16-4.34-.39-6.54.39-1.17.65-2.4,1.75-3.11A2.71,2.71,0,0,1,159.89,43Z" fill="#a6eef8"></path><path d="M19.48,33.47c1.23-1.55,2.92-2.59,4.08-4a1.17,1.17,0,0,1,1.81-.2c.59.52.39,1.1.13,1.69a12.37,12.37,0,0,1-2.33,3.17,16.93,16.93,0,0,0-1.68,2.46c-.71,1.43-1.1,1.49-2.72,1.23-.71-.13-1.56.13-1.56-.9a92,92,0,0,1,0-10.37c.07-.9.65-1.42,1.36-1.29s.91,1,.85,1.68a39.35,39.35,0,0,0-.13,5.64A.74.74,0,0,0,19.48,33.47Z" fill="#a6eef8"></path><path d="M117.15,36.84c1.23-.91,2.91-1.1,3.75.2a2.23,2.23,0,0,1,.39,1.94c-.71,2-1.36,4.08-2.07,6.22s-3.23,2.65-4,.26C114.06,42.7,115.1,38.52,117.15,36.84Z" fill="#a6eef8"></path><path d="M128.16,60.09c2.33.71,4.66.71,6.93,1.1,1,.13,1.29.59,1.68,1.69.58,1.55.26,3,.2,4.47A2.34,2.34,0,0,1,133.66,69a4.81,4.81,0,0,1-2.39-3.37,4.73,4.73,0,0,0-1.56-2.59A6.58,6.58,0,0,1,128.16,60.09Z" fill="#a6eef8"></path><path d="M106.46,87.94a.81.81,0,0,1-.91-.71c-.19-.71-.25-1.3.46-1.81a20.28,20.28,0,0,1,2.52-1.17,16.51,16.51,0,0,0,5.64-4.92A22,22,0,0,0,116.31,76a1.39,1.39,0,0,1,1.74-.9c.46.13.78,1.94.52,2.46-1.55,2.59-3.17,5.25-5.7,7.12a20.8,20.8,0,0,1-6,3.11A.61.61,0,0,0,106.46,87.94Z" fill="#a6eef8"></path><path d="M10.15,30a1.06,1.06,0,0,1,.78.2c1.49,1.87,3.43,3.3,4.54,5.57.25.58.64,1.23,0,1.68s-1.43.13-2-.52c-.39-.52-.65-1-1-1.49A16.73,16.73,0,0,0,10,32.57C8.88,31.58,8.63,29.92,10.15,30Z" fill="#a6eef8"></path><path d="M183.6,137.16c0,1.84-1.89.81-3.44,2.08-.71.51-1.23,0-1.49-.65-.45-.91-.13-1.94-.45-3-.06-.45,1.17-.91,1.81-.65a7.9,7.9,0,0,0,2.72.78C183.47,135.87,183.6,136.52,183.6,137.16Z" fill="#a6eef8"></path></g><g><path d="M191.24,171.68c-.45-.58-1.09-1-1-1.75a12.11,12.11,0,0,1,1.1-4.53c.48-1,.26-1.16-.64-1.23,1-1,.64-1.68-.72-2.07-3.17-.84-6.21-1.88-9.39-3,1.55-.77,4-1.72,6.16-2.59.32-.07.9-.2.51-.65s-.45-.91-.84-1.1c-2.14-1.43-2.59-2.79-1.42-5.12,2.46-4.64,2.62-3.71,3.06-5.93a11.13,11.13,0,0,0-.73-5.79,3,3,0,0,0-2.07-1.88c-1.63-.41-3-1.36-4.67-1.75-.26-.06-.64-.19-.26-.58a2.56,2.56,0,0,0,.52-2.07c0-.58-.13-1-.71-1.23-1.5-.55-3-1.17-4.66-1.75,2.25-1,6.79-1.55,10.36-4.15.64-.46.45-.45.06-.84-1.94-2-2-4.47-1.55-7a3.17,3.17,0,0,1,1.1-2c.19-.13.19-.39.13-.65-.19-1.1-1-1.36-1.94-1.36a24.61,24.61,0,0,1-4.34-.52c-3.31-.71-6.8-.77-10.11-1.42a39.65,39.65,0,0,0-5.89-.71c-1,0-2.2-.33-3.37-.46a1.87,1.87,0,0,1,.78-1.23c.45-.26.52-.65.71-1a8.22,8.22,0,0,0,.52-3.57c.13-2.78.07-5.69,0-8.48-.19-7.44.81-2.93-4.27-23.77a7.33,7.33,0,0,0-5.38-5.83c-4.13-1-8.07-1.91-12.31-1.29-.39,0-1,.12-1.1-.59a3,3,0,0,0-1.16-2.26c2.59.26,4.86,1,7.25.77,1-.1,2.07-.64,3-.38,2,.71,3.76,0,5.57-.65,2.92-1.1,4.66-3.43,5.83-6.22.24-.54,1.51-1.45-.37-1.91a3.28,3.28,0,0,1-2.09-3.85,17.25,17.25,0,0,1,1.42-4.34,4.17,4.17,0,0,1,3.18-1.1c-2.72,1.94-3.89,5.57-2.59,8.35.24,1,2.14,1.3,1.49-.45a6.58,6.58,0,0,1-.2-3.37c.26-1.62,1.3-2.72,2.07-4,.13-.13.26-.19.39-.13.78.2,1.43.46,1.56,1.37a7.41,7.41,0,0,1-.46,3.75,16.23,16.23,0,0,1-1.59,3.21.47.47,0,0,0,.65.66,4.86,4.86,0,0,0,.94-.82,9,9,0,0,0,2.08-6.22,3.4,3.4,0,0,0-2.46-3.43c-.39-.13-.78-.52-1.17-.52-1.62,0-2.27-1-3.17-2.08a9.94,9.94,0,0,0-4.54-2.78,3.54,3.54,0,0,1-2.65-2.46A5.18,5.18,0,0,0,148.56,31c-1-.39-1.94-.71-3-1.17-.58-.26-1.56-.39-1.75-.84-.31-.67.5-.83,1.17-1.49,1.68-2.2,4-3.89,5.95-5.89a.44.44,0,0,1,.65-.07,2.38,2.38,0,0,0,3-.9c.65-.78.13-1.82-.26-2.53-1-2-2.24-2-3.43-.07a2.43,2.43,0,0,0-.52,1.37c0,.25,0,.51-.26.64-1.75,1-2.91,2.66-4.34,4-1.1,1-2.07,2.07-3.17,3.17-.91-2.07-2.07-3.75-2.78-5.7-.52-1.36-1.24-2.65-1.88-3.95-.26-.52-.33-.84.39-1.29a2.26,2.26,0,0,0,.19-3.83,2.62,2.62,0,0,0-2.53.2c-1.36.65-1.87,2.59-.58,3.3s1.62,2.14,2.14,3.37c.91,2.07,1.55,4.08,2.46,6.09.45,1,.84,2,1.36,3.24-1.88-.78-3.57-.68-5.31-.91a8.29,8.29,0,0,0-4,.06A8,8,0,0,0,128.35,31a1.42,1.42,0,0,1-1.29.71,11,11,0,0,0-3.18.45c-1.55.59-2.2,1.88-2.72,3.31-.13.51-.32.79-.9.71a2.27,2.27,0,0,0-2.14.91c-1.3,1.94-2.59,4-2.14,6.47.2,1.1.12,2.55,1.36,3.05,1,.41,1,.9.78,1.68a5,5,0,0,0-.39,1.36c-.13,1.88-.39,3.69,1.1,5.25a15.36,15.36,0,0,0,8.23,4.4c1.1.21,7.8,2,8,2.07,1.23.26,1.23.26.52,1.17-1.36,1.75-3.37,1.62-4.6-.39-.2-.33-.36-.67-.53-1a.57.57,0,0,0-1,.48,7.77,7.77,0,0,0,1.88,2.66c-2,.39-3.88.26-5.7.84a18,18,0,0,0-5.89,3.24,6.5,6.5,0,0,0-2.66,4.27c-.13.58.13,1.43-.13,1.69-2,2-1.53,4-10.55,10.16-.78.65-1.69,1.23-2.59.2-.07-.13-.39-.13-.52-.13-.46.06-.64-.2-.84-.65-1-2.29-1.62-4.53-2.47-6.8a48.19,48.19,0,0,1-1.74-5.12c-.59-2.33-.85-4.72-1.49-7.06-.65-2.59-1.23-3.17-3.83-3.1-4.08.06-8.29.26-12.37.64-1,.07-1.94,0-3,.07-2.14.19-4.4.44-6.55.78-1.93.3-3.81.43-5.76.84a5.34,5.34,0,0,1-5-1.17,7.35,7.35,0,0,0-.77-.58c-1.62-1.17-3.5-1.88-5.19-3a6.4,6.4,0,0,0-3-1.3c-.65-.19-1.24.06-1,.84.13.58.26,1-.45,1.23a.62.62,0,0,0-.2.84c.71.72.71,1.82,1.3,2.6,1.16,1.81,1.94,3.82,3.11,5.63a19.75,19.75,0,0,1,1.87,4.34c.72,2.14,1.92,4.13,2.59,6.22a1,1,0,0,1-.38,1.42,3.39,3.39,0,0,0,1,5.7,2.52,2.52,0,0,1,1.23.52c-1.49,1.88-1.55,4.53,1.43,5,.52.06.32.32.26.71-.33,2,.84,3.24,2.78,2.78.58-.13.58.26.71.52a29.78,29.78,0,0,0,2.14,4.41,15.82,15.82,0,0,0,2.79,2.39,16.73,16.73,0,0,0,4.27,3c.26.13.58.45.84.06.78-1,1.88-.58,2.79-.58s1.68.19,2.52.26c1.69.13,3.37.32,4.93.58a43,43,0,0,1,5.76,1.1,1.42,1.42,0,0,0,.71,0,.89.89,0,0,0,.78-.71c.06-.39-.2-.64-.65-.78a1.74,1.74,0,0,1-1.23-.71c1.36.52,2.59.06,3.76-.07-.35,1-1.78,2.94-.52,4a1.84,1.84,0,0,0,2.07.06c1.24-.48,2-1.68,3.11-2.39.56-.39,1-1.21,1.67-1.25.86-.07,1,1.75,4.51.53a8.27,8.27,0,0,0,3.28-2.13c.64-.78.77-1.88,1.36-2.59.9-1.1,1.87-2.08,3.56-1.88a4.11,4.11,0,0,0,1.68-.39c3.11-1,5.93-2.66,8.94-4,.64-.27,1-.26,1.1.52a22.52,22.52,0,0,1,.07,3,43.54,43.54,0,0,0-.26,6c.06.9-.13,1-.85,1.1-7.33,1.52-21.9,6.67-28.88,7.57a40.83,40.83,0,0,0-5.38,1.3c-1.62.45-3.17,1.1-4.85.65a1,1,0,0,0-1.1.58c-.91,1.68-1.72,3.25-2.47,5-1.48,3.46-1.68,6.73,1.36,9.52.46.52.2.58-.19.77-1.36.78-2.33,4.54-2.07,5.9.45,2.52,2.39,3.56,4.4,4.6.2.06.52-.13.65.26a.42.42,0,0,1-.52.19c-.26,0-.58-.45-.84,0-.5.63,1.22,1.27,1.36,3.5.26,3.3.22,6.43-2.46,8.93-1.64,1.54-3.18,3.18-4.66,4.86a27.88,27.88,0,0,0-3.83,5.18,24,24,0,0,0-2,7.06,3.75,3.75,0,0,0,3.82,4.34,10.64,10.64,0,0,0,3.69-.84,17.86,17.86,0,0,0,4.21-2,9.31,9.31,0,0,0-.39,3.82c.28,2.15,1.81,4.93,4.4,5.12a19.06,19.06,0,0,1,2.27.39c10.86,3.3,7.13,1.77,16.39,4.21,2.53.71,15.94,4.16,18.58,5a55.66,55.66,0,0,0,8.55,2.13c1.78.26,3.51,1.34,5.3.9a27.87,27.87,0,0,0,4.94-2.13c6.74-3.69,12.4-5.26,34-14.76,2.07-1,4.21-1.43,6.15-2.47a28.5,28.5,0,0,1,5.83-2.39C191.82,172.85,191.89,172.4,191.24,171.68ZM152.64,18.32a2,2,0,0,1,.91,1.29c0,.46-.39.65-.85.59a.88.88,0,0,1-.77-1.1C152,18.71,152.12,18.38,152.64,18.32ZM137,15.27c-.32.07-.84-.25-.78-.64.13-.65.56-.81,1.17-.79a.76.76,0,0,1,.65.66C137.94,15.08,137.48,15.21,137,15.27ZM185.47,139.5a2.24,2.24,0,0,1,.2-.72c.18-.52.4-.65.78-.06.8,1.27.58,5.05-.52,6.41A21.25,21.25,0,0,1,185.47,139.5Zm-.32,6.15c.26.71.07,1.1-.78,1.23a27.7,27.7,0,0,0-5.11,1.81c-8.79,3.49-17.38,7.38-20.34,8.49-3.37,1.23-6.73,2.72-10.1,4-2.85,1.1-5.7,2.4-8.49,3.63-.58.19-1.23.39-1.94.58a8.6,8.6,0,0,0,.26-6c9.53-3.31,6.14-2,14.18-5.05,1.77-.67,3.5-1.62,5.38-2.27,2.65-1,15.54-6,19.36-7.31a11.47,11.47,0,0,0,2.79-1c.26-.13.65-.39.65-.78s-.52-.58-.78-.65c-.71-.19-.78-.9-1.17-1.42,1.95-.78,3.89-1.55,5.9-2.27A10.78,10.78,0,0,0,185.15,145.65ZM97.91,167a15.87,15.87,0,0,0,3.18.71,31.47,31.47,0,0,0-2.66,3.69.6.6,0,0,1-.78.39c-2.13-.32-4.34-.58-6.41-1.1a3.45,3.45,0,0,1-1.16-.13c1.29-1.16,2.55-2.36,3.82-3.56a9.88,9.88,0,0,0,1.68-1.68,1.59,1.59,0,0,1,2-.78c1.88.45,3.82.32,5.7,1.1-.59.65-1,1.23-2,1a23.29,23.29,0,0,0-3.17-.52c-.33-.07-.78-.39-.91.13S97.52,167,97.91,167ZM137,135.74c.24.78.84,1.42,1.3,2.46a12.66,12.66,0,0,0-5.12-1c-1.81-.19-3.63-.51-5.51-.71-.84-.06-1-.51-.58-1.16,1.34-2.31,2.46-4.86,3.95-7.19,1-1.43,2.07-2.79,3-4.21a1.1,1.1,0,0,1,1.23-.59,32.05,32.05,0,0,1,5.31.59,21.94,21.94,0,0,0-2.39,3.69A10,10,0,0,0,137,135.74ZM127.25,131a35,35,0,0,0-2.78,6.93c-.39,1.75-1.11,3.56-1.56,5.38s-.65,3.3-1,5a32,32,0,0,0-.85,9.59c.07.52-.06.59-.45.58a2.56,2.56,0,0,1-2.4-2.65,26.13,26.13,0,0,0,.33-3.24c0-1.36.19-2.66.26-4a34.52,34.52,0,0,1,1.75-7.7c.58-1.88,1.36-3.7,2.07-5.57a93.13,93.13,0,0,1,4.08-9.07,57.66,57.66,0,0,1,6.22-9.13,24.51,24.51,0,0,1,9.32-7,9,9,0,0,1,3.95-.84c1.31,0,1.86,1.21,0,2.66a14.32,14.32,0,0,1-3.77,1.87A6.32,6.32,0,0,0,140.4,115a29.77,29.77,0,0,0-4.66,4.34A50.43,50.43,0,0,0,127.25,131Zm.13,21.76c.07.58.07,1.17-.84.71s-1.75-.64-2.59-.9-.84-.65-.78-1.3c.26-1.94.52-3.88.71-5.76,1.36,0,2.33,1,3.57,1,.38.07.32.39.19.65C126.93,149,127.19,150.89,127.38,152.77Zm-9.26-11.59c-1.88-.91-3.89-1.62-5.77-2.46-2.83-1.24-7.3-2.71-8.74-3.43a46.85,46.85,0,0,1,8,1.16c1.74.3,3.56.52,5.31.71.78.07,1.49.59,2.26.52.52,0,.46.33.39.71-.13.91-.71,1.75-.71,2.66C118.83,141.57,118.38,141.31,118.12,141.18Zm14.57-26.36c-4.3,4.88-4.14,5.59-5.18,5.44-2.53-.39-5.12-.52-7.58-1s-5-.58-7.64-1a18.45,18.45,0,0,1,3.37-2.46,51.65,51.65,0,0,1,11.46-5.57,8,8,0,0,1,5.77,0c1,.51,2.26.51,3.43,1.16C135.09,112.62,133.73,113.59,132.69,114.82Zm-17.49,5.57a10.93,10.93,0,0,1,3,.65,21.63,21.63,0,0,0,4.86.58c1.23.06,2.39.65,3.69.58-1.9,3.8-3.85,6.39-5.31,10.62a17.61,17.61,0,0,0-.91,2.27c-.08.52-.52.45-.91.39-4-1-8-1-12-1.88-1.85-.41-2.06.14-2.91-.71-1.43-1.43-1.69-3.37-2.08-5.25-.12-.32.13-.58.26-.77a72.64,72.64,0,0,1,6.29-6.48,2,2,0,0,1,1.68-.45A17.41,17.41,0,0,0,115.2,120.39ZM103.09,133c-1.42-.19-2.65-.38-4-.58a33,33,0,0,1,2.33-3.69A7,7,0,0,0,103.09,133Zm8.29,7.32c2.12.89,4.3,1.83,6.35,2.79.26.12.26.32.19.58a51.19,51.19,0,0,0-.9,6.22c0,.65-.33.4-.71.26-1.51-.55-3-.91-4.54-1.49-2-.78-4.21-1.36-6.28-2-1.88-.58-3.76-1.23-5.7-1.68-1.23-.2-1.68-1-2.14-1.95a6.18,6.18,0,0,1-.71-2.72,17.34,17.34,0,0,1,.78-4.86c.26-.45.52-.71,1.1-.45C105.6,138.11,101.46,136.11,111.38,140.27Zm-13.86,5.64c11.76,3.24,13.77,4.53,17.55,5.76.26.07.39.2.52.2,1.62-.26,1.36,1.1,1.56,2,.06.46-1,.84-1.82.65s-1.68-.52-2.52-.78c-1.49-.45-3-.71-4.47-1.29-2.85-1.1-5.89-1.17-8.68-2.27a9.34,9.34,0,0,0-3.3-.78c-.13,0-.46-.13-.52.13s.2.45.45.52c3.32.91,6.67,2.14,10,3,3,.9,6.15,1.81,9.2,3a.79.79,0,0,1,.71.65,3.68,3.68,0,0,0-2.2.32c-.65.26-1.43-.18-2.07-.39-2.61-.85-5.46-1.18-8.1-2a.32.32,0,0,0-.21.61c2.77,1,5.75,1.49,8.57,2.7a26.8,26.8,0,0,1-3.11,2.33c-.59.32-1.3-.26-2-.39-2.33-.39-4.53-1-6.87-1.16-4.23-.25-2.49-5-5-7.52-.72-.71-.52-3.17.06-4a1.52,1.52,0,0,0,.26-.59c.13-.51.13-1.23.52-1.36S97,145.76,97.52,145.91ZM103,164.24a58.27,58.27,0,0,0-6.15-.65,6.17,6.17,0,0,0,1-3,.36.36,0,0,1,.46-.39c2.85.52,5.82,1.1,8.93,1.68-1,.91-1.88,1.69-2.72,2.53C104.06,165,103.55,164.3,103,164.24Zm8.94-3.83c1.55-.84,2.85-2.2,4.66-2.65.39-.07.78-.07.84.19.58,1.82,2.27,2,3.69,2.53.33.13.65.26.72.78.12,2.59.24,5.14-1,7.51-.5.92-1.54,1.31-2.33,1.94-.51.41-5,2.95-5.18,2.79-.39-.33-.33-1.17-.46-1.75a11,11,0,0,0-6.8-7.13C108,163.26,109.63,161.58,112,160.41Zm6.41,11.66a3,3,0,0,1,1.68-.06c2.33.52,4.6.9,6.93,1.36.39.13,1,.26,1-.26s-.39-.78-.84-.91a25.23,25.23,0,0,0-4.54-1.16c-.39-.06-1.17-.07-1-.52a1.47,1.47,0,0,1,1.29-.84,3.18,3.18,0,0,0,.78-.07c.26-.06.65-.13.65-.52s-.33-.45-.52-.52c-.58-.19-.71-.45-.52-1.1a10.79,10.79,0,0,0,.13-2c3.69.58,7.25,1.29,10.88,2.07-3.37,4.27-3.76,7.71.06,11.46-7.12-1.1-14.24-1.55-21.11-3.62A31.19,31.19,0,0,1,118.38,172.07Zm6.47-8.35c-1.42-.33-1.87-.91-1.49-2.27.07-.39.26-.26.52-.19,2.66,1,5.51,1.36,8.23,2.13a4.94,4.94,0,0,0,3.11.2c-.39-.84-1-1.3-1.69-1.17-3.3-.52-6.47-1.62-9.78-2.26a1.8,1.8,0,0,1-1-1.75,10.7,10.7,0,0,0,.26-3.18c-.13-.64,0-.92.77-.64,3.53,1.27,7,2.59,10.62,3.69.59.26,1.31.18,1.88.45,1.31.62,1.88,2.27,1.36,4-.39.9-.77,1.81-1.16,2.72-.07.26-.26.32-.65.26C132.14,165.2,127.14,164,124.85,163.72Zm9.59-8.23c0,.71-.26.84-.78.58a36.06,36.06,0,0,0-4.27-1.48.75.75,0,0,1-.65-.85,21.19,21.19,0,0,1-.19-3.56,7.94,7.94,0,0,1,.26-2.46c.12-.58.32-.71.9-.45a22.41,22.41,0,0,0,4.86,1.75C136.66,149.54,134,149.87,134.44,155.49Zm1.94,1a1.91,1.91,0,0,1-.64-1.55c0-2.26-.77-5.38,2.39-6.61s24.92-9.06,28.24-10.49c1.88-.78,3.89-1.29,5.83-1.94a41.22,41.22,0,0,1,5.18-1.49c.58-.07.91-.65,1.42-.78a.48.48,0,0,1-.13.65c-.9,2.27-1.68,4.53-1.16,6.93.26,1.16-.06,1.25-.91,1.68-3.14,1.62-6.47,2.46-9.71,3.69-7.95,2.94-20.34,8.38-28.24,11.08C137.61,157.89,137,157,136.38,156.46Zm43.14-18.91c.45-2.07.47-2.11,2.33-1.23a14.31,14.31,0,0,1,1.49.84c-1.23.91-2.59,1.23-3.69,2-.33.26-.39-.06-.39-.26C179.32,138.46,179.45,138,179.52,137.55Zm-.39-5.5c-1.49.71-2.92.64-4.28,1.1-1.68.39-3.17,1.16-4.85,1.55-3.7.84-7,2.79-10.56,4-2.14.72-4.28,1.75-6.35,2.53-2.59,1-5.22,1.92-7.77,3-2.12.88-4.66,1.42-6.54,2.72s-3,.65-4.53.13c-5.36-1.88-9.84-3-9.78-3.95s1.17-4.35,1.7-4.63c.32-.16.79-.06,1.66.16a49.13,49.13,0,0,0,6.87.78,14.92,14.92,0,0,0,4.47.19c.58-.06.9.39,1.29.65a3,3,0,0,0,3.63.26,46,46,0,0,1,5.38-2.34c2.39-.9,4.66-1.81,7.05-2.65,5-1.75,10-3.65,15.1-5.31a4.76,4.76,0,0,1,3.82.19C176.6,131,177.77,131.46,179.13,132.05Zm4.79-16.45c-1,1.75-.65,3.36-.65,5a4,4,0,0,0,.52,2.46c.39.78.07.85-.45,1-2.46,1.23-5.12,1.75-7.64,2.66-4.54,1.62-9.14,2.91-13.61,4.72-8.25,3.29-11.51,4.24-18.84,7.71-.26.13-.58.25-.84,0-1.59-1.52-3.2-3-3.7-5.31-.55-2.6,1-5.57,2.21-7.9a2.29,2.29,0,0,1,1.81-1.23c3.9-.75,7.77-1.81,11.66-2.53,4.35-.78,20.69-4.49,21.31-4.66C178.29,116.83,180.94,116.24,183.92,115.6ZM160.73,111c7,1.3,16.94,2.91,19.05,3.24v.13c-1.43.38-2.85.71-4.28,1-2.23.67-13.13,3.48-19.23,4.73-3.63.78-7.13,1.68-10.76,2.33-1.36.26-2.91-.19-4.4-.26s-3-1.1-4.86-.84a38.62,38.62,0,0,1,8.75-7.12c.35-.22,2.56-.48,2.72-.72,1.29-1.68,3.3-1.16,5-1.42a19,19,0,0,0,5.64-1.36C159.05,110.35,160,110.85,160.73,111Zm-5.24-66a15,15,0,0,0,.13-5.63c3.49,2.87,3.82,2.8,3.82,3.37a.54.54,0,0,1-.58.45c-.91-.07-1.18.57-1.56,1.23a11.53,11.53,0,0,0-1.81,5.37c-.07,2.34.52,3.37,2.52,4.41-1.16,3.88-4.08,5.57-8,6.67,1.94-1.55,2.52-3.76,3.11-5.76A91.25,91.25,0,0,0,155.49,45Zm-19.3-15.74c3.18.43,9.65,1.7,12.43,3.63,1.3.84,1.36.84,1.82,2.53-6.87-1.69-13.54-4.34-21-4C131.53,29.13,133.73,29,136.19,29.26ZM118.64,46.1c-2-3-.33-7.64,1.81-8.68C121,40.09,119.25,42.61,118.64,46.1Zm10.49,12.31c-3.67-1.12-5.91-.85-9.39-5.12-.71-.84-.52-2.14-.26-3.3.65-2.72,1-5.57,1.81-8.29a15.72,15.72,0,0,0,.46-2.53,14,14,0,0,1,1.36-3.24,3.55,3.55,0,0,1,3.56-2.26c1.75,0,3.37-.39,4.4-.26a44.29,44.29,0,0,1,13.73,2.4c1.8.62,3.76.71,5.51,1.49,2.33,1.1,3.43,1.74,3.36,5a38.62,38.62,0,0,1-1.94,10.62c-1.88,6.83-4.41,7.94-8.81,7.71-1.49-.06-3.1-.32-4.59-.52A62.42,62.42,0,0,1,129.13,58.41ZM137,63.78a2.8,2.8,0,0,1-.2,3.76,1,1,0,0,1-1.16.26,4,4,0,0,1-2.53-2.46C134.89,65.86,135.86,64.63,137,63.78Zm-14.12,4.34A21.66,21.66,0,0,1,129.06,66c1.75-.46,2.92-.65,3.83,1.42a3.33,3.33,0,0,0,4,1.81c1.62-.45,2.07-1.81,2.33-3.1.19-1,.71-1.12,1.36-1,4.29.54,8.61,1,12.63,2.91a6.43,6.43,0,0,1,3.36,4.21,86.05,86.05,0,0,1,2.47,10,43.85,43.85,0,0,1,1.29,10.94c-.19,3.11-.06,6.29-.06,9.46a32,32,0,0,0-.13,3.56A1.76,1.76,0,0,1,159,108c-1.36.59-2.6,1.6-4.08,1.82s-3.18.32-4.73.52c-.46.06-.64-.2-.84-.59-1.12-2.1-3.11-3-4.86-2.26A29.1,29.1,0,0,0,139,109.9c-.19.19-.45,0-.64-.07-2.79-.84-5.44-1.62-8.16-2.39-.33-.07-.39-.26-.46-.52s-.26-.46-.45-.58c-1.56-.85-1.56-.85-1.56-2.79a41.68,41.68,0,0,0,0-5.7c0-1.91-1.25-2.91.2-3.43,2-.78,3.67-2.19,5.57-3.18a57.42,57.42,0,0,0,8.68-5.95c1.42-1.17,2.72-2.46,4.08-3.76.32-.32.33-.33.77-.07a3.18,3.18,0,0,0,3.18-.12c2.39-1.23,4.08-4.86,2.33-7.65a6.72,6.72,0,0,0-2.4-2.59c-3-1.66-6.78.66-6,4.67.07.51-.13.71-.38,1.1-2.14,2.39-4.93,4-7.45,6s-5.44,2.91-8,4.59c-.52.39-1.16.66-1.75,1-.83.53-1,.06-1.1-.65a25.13,25.13,0,0,0-2.27-8.22c-1-2.33-1.49-4.86-2.4-7.26C120.19,70.84,121.07,69.18,122.85,68.12Zm25.77,7.52c-.77-.85-1.55-1.69-3-1.49,1-1.82,2.33-2.14,4.08-1.43,1.36.65,2.53,3.18,2.07,4.47-.71,1.94-2.07,3-3.75,2.59.38-.39,1.42.2,1.42-.84S149.47,76.54,148.62,75.64Zm-29.47-5.06a10.88,10.88,0,0,0,1.24,5.25C118.18,74.41,117.86,73.3,119.15,70.58ZM106.72,86.45a36.88,36.88,0,0,0,5.63-4.53c2-1.94,4-4,4.73-7,1.11.8,1.58,2,2.89,2.24a33.16,33.16,0,0,1-2.18,3.33c-2.18,2.15-4.08,4.47-6.6,6.29-1.23.84-2.72,1.23-4,1.94-.32.06-.39,0-.45-.2-.14-.45-.45-.84-.58-1.36S106.46,86.58,106.72,86.45Zm-3.89.07c.46-.33.78.19,1,.39,1.55,1,1.55,2.85,2.59,4.4-1-.13-1.81-.58-2.65-.65a.35.35,0,0,1-.39-.26c-.31-.85-.78-1.75-1-2.65A1,1,0,0,1,102.83,86.52ZM64.69,65.19c3.09-.22,6-.42,9-.82,4-.52,8-.2,11.85-.78,1-.13,2.27.13,3.37.06,1.49-.12,2.85-.09,4.27-.12,1.17,0,1.17,0,1.56,1.29a30.74,30.74,0,0,1-4.28-.26c-5.18-.24-8.29.84-12.37,1.23a53.61,53.61,0,0,1-7.9.46c-1.42-.06-4.37,0-5.55-.16A.45.45,0,0,1,64.69,65.19Zm-4.6-.31a1.91,1.91,0,0,1,1.35.43.44.44,0,0,1-.14.8,1.23,1.23,0,0,1-1.47-.45C59.66,65.44,59,64.88,60.09,64.88Zm-7.64-4.14c.06-.26.32-.19.45-.19.65.06,1,.65,1.49.9,1.47.81,3,1.49,4.53,2.27.26.13.65.13.39.65-.19.32-.39.51-.84.26a8.55,8.55,0,0,1-1.23-.78,21.86,21.86,0,0,0-4.34-2.46C52.58,61.26,52.38,61.13,52.45,60.74ZM58.6,84.83c-.26-.64-.52-1.23-.07-1.81a.69.69,0,0,1,.59-.45c.39,0,.39.32.52.51a21.27,21.27,0,0,1,1.29,3A2.6,2.6,0,0,1,58.6,84.83Zm3.82,6.54c-.72-.17-1.75-.19-1.75-1.36a8.06,8.06,0,0,1,.33-1.1,1,1,0,0,1,.71-.71c.45-.06.39.45.52.71.26.65.51,1.23.77,1.88S63,91.52,62.42,91.37Zm.84,1.75c.07-.26.13-.52.46-.52.5,0,.25.33,1.36,2.72C63.59,94.94,63.07,94.16,63.26,93.12Zm5.9,7.58c-.13-.06-.13-.32-.2-.45a48.58,48.58,0,0,0-3.63-8.55c-2.33-4.79-4.27-9.85-6.28-14.77-.84-2-1.81-3.88-2.65-5.89a32.15,32.15,0,0,1-1.3-3.24c-.68-1.74-1.81-3.11-2.72-4.92,2.85,1.29,5.12,2.91,7.58,4.21a1.21,1.21,0,0,1,.65.84C61.71,71.3,63,74.54,64,77.84c1.29,4.47,2.91,8.87,4.27,13.34a23.47,23.47,0,0,0,2.53,6.41,29.86,29.86,0,0,1,1.68,3.63,4.56,4.56,0,0,0,1.49,2,.94.94,0,0,1,.39.9C72.46,103.36,71.1,101.54,69.16,100.7Zm6.73,2.59c-2-2.27-2.52-5.24-3.75-7.84s-1.88-5.18-2.79-7.7c-.91-2.33-1.29-4.8-2.46-6.93-1-1.88-1.36-4.15-2.07-6.16s-1.56-4-2.27-5.89c-.26-.71-.19-.91.58-.84s1.23.26,1.36.91c.33,1.87,1.43,3.49,2.08,5.31.77,2.13,1.68,4.27,2.33,6.41a47.45,47.45,0,0,0,2.59,7.19c1,2.07,1.36,4.34,2.26,6.41,1.36,3.24,2.34,6.73,3.83,10C76.54,104.46,76.28,103.87,75.89,103.29Zm14.44-.58a1.84,1.84,0,0,0,.07,2.59c.19.13.45.26.45.65-1.29-.26-2.65-.54-3.95-.72-1.68-.22-3.3-.45-5-.58-.84-.06-1.68-.19-2.52-.26-.65-.06-1.1-.78-1.3-1.42-1-2.59-1.81-5.18-2.91-7.77-.78-1.88-1.23-4-2-5.83-.91-2.14-1.88-4.28-2.59-6.54-.45-1.56-1-3.18-1.55-4.67-2.72-7.61-4-8.08-4.15-10h7.58c11.88-.46,9.71-1.79,21.5-1.49a1.83,1.83,0,0,1,2,1.88c.06,2.65,1.23,5,2,7.57,2.5,7.92,4.34,8.18,2.85,10.37-.63.92-.07,2.13.39,3.24a2.14,2.14,0,0,1,.45,1.42C100,89.11,98.43,87,96,85.8a4.55,4.55,0,0,0-2.79-.38c-1,.17-1.58,1.76-.9,2.91a27.89,27.89,0,0,0,1.88,3.11,9.1,9.1,0,0,0,2.52,2.46,19.61,19.61,0,0,0-3.11-.78,5.34,5.34,0,0,0-4.27.65,2,2,0,0,0-.84,1.75c0,1.17,5,3.5,7.51,3.82a11.36,11.36,0,0,1-2.33.71A7.52,7.52,0,0,0,90.33,102.71Zm3.57-15c-.13-.33-.33-.78.06-.78,2.8.37,4.49,2.48,6.48,4.47.32.26.58.58-.07.84a1.2,1.2,0,0,0-.39.39c-.51,1.36-1,.71-1.81.19A11,11,0,0,1,93.9,87.75Zm4.08,10c-.2.19-.26.19-.46.13a13.4,13.4,0,0,1-6.93-2.79,2.94,2.94,0,0,1,2.14-.65,11.37,11.37,0,0,1,4.73,1.36A1.54,1.54,0,0,1,98,97.79Zm-4.08,6.47c-.72.2-1.56.33-2-.19s.53-.9.91-1.36A7.22,7.22,0,0,1,97.2,101c.58-.13.84.13,1.1.71S95.24,104.07,93.9,104.26Zm6.41,1a47.3,47.3,0,0,0-4,2.79,10,10,0,0,1,2.59-3.69c.66-.57,1.1-.33,1.49.45C100.44,105,100.44,105.17,100.31,105.23Zm6.35-.45c-1.71.8-3,.78-4.41-.65-.91-.84-2.11-1.56-2.4-2.78-.58-2.48-.58-4.92,1.17-7s3.11-2.46,4.92-1.68a6.35,6.35,0,0,1,1.69,1.17c.51.51.84,1,0,1.68a4.2,4.2,0,0,0-.46,5.7,3.06,3.06,0,0,0,2.08,1.1A5.21,5.21,0,0,1,106.66,104.78ZM111,99.15c-.32.51-.06,1.49-1.23,1.36a1.84,1.84,0,0,1-1.49-2.72c.65-1.56,1.11-1.62,2.14-.39.07.06.13.19.2.19C112,97.79,111.25,98.63,111,99.15Zm.2-3.24a3.15,3.15,0,0,0-2-1.23c-.06-.07-.26-.2-.26-.26-.26-1.3-1.29-2.33-1.36-3.69-.06-.39,0-.52.46-.59a9.45,9.45,0,0,0,4.59-2.33,31.69,31.69,0,0,0,6.09-6.73,13.68,13.68,0,0,0,1.74-3.69c1.08.88,1.4,2.34,1.82,3.36A36.17,36.17,0,0,1,124.08,86c.13.91.32,1.81.52,2.72a.9.9,0,0,1-.59,1c-2.59,1.29-5.11,2.65-7.7,3.82a23,23,0,0,0-4.54,2.33A.48.48,0,0,1,111.19,95.91Zm11.59-1.1c-2.33.9-4.34,2.33-6.73,2.91-.91.2-1.88.45-2.72.65-.26-.07-.65.13-.78-.45-.07-.39.19-.59.58-.78,2.27-1.23,4.6-2.07,6.87-3.24,6-2.94,15.15-8,20.46-12.05A35.34,35.34,0,0,0,146.23,76c.32-.45.52-.52.9,0,1,1.3.78,2.46-.71,3.69A57.84,57.84,0,0,1,141.05,84a80.84,80.84,0,0,1-8.88,5.89C129.06,91.57,126.08,93.58,122.78,94.81Zm2.53,12.63a2.44,2.44,0,0,1,3,1c-3.5.41-6.24,1.8-9.2,3.11a67.52,67.52,0,0,0-9.13,5.57,47.8,47.8,0,0,0-5.83,5.64,26.88,26.88,0,0,0-4,5c-2.25,3.84-5.47,9.46-6,14.32-.11,1-.52,1.81-.65,2.72a19,19,0,0,0-.19,6.93c.06.51-.07.58-.58.45-1-.26-1-1.17-1.17-1.94-1.41-5.75,1.15-11.88,3-17.23a1.84,1.84,0,0,1,.26-.45c1.42-1.88,2-4.15,3.17-6.16a35.73,35.73,0,0,1,6.41-8.22c2.85-2.85,6.35-4.8,9.72-6.8C118.16,109,123.18,108.21,125.31,107.44ZM91,137.42a5.59,5.59,0,0,1,.58-3.82.68.68,0,0,1,.91-.39c.45.2,0,.52-.06.78C92,135.09,91.5,136.26,91,137.42Zm3.37-7.58A7.44,7.44,0,0,1,93.18,126c-.27-2.14.31-4.07.72-6.08.47-2.31,1.36-1.79,7.32-1.17A39.5,39.5,0,0,0,94.35,129.84Zm14.57-17a45.32,45.32,0,0,0-4.86,3.63,2.71,2.71,0,0,1-2.91.65,20.2,20.2,0,0,0-6-.52c-1.23-.07-2.39-.2-3.56-.26a.77.77,0,0,1-.07-.39C97.46,115.4,103,113.07,108.92,112.81ZM84.76,121a16.2,16.2,0,0,1,1.36-3.31c.62-.92.22-.49,6.42.26.64.08,1.16,0,.71,1.17-1.68,4.35-2.08,8.4.39,12.3a40,40,0,0,1-5.77-.45,2.34,2.34,0,0,1-2-1.17c-.59-1.1-1.62-1.87-2-3.17C83.27,124.6,84.18,122.85,84.76,121Zm.59,19.3a3.66,3.66,0,0,1-2.14-3,7.93,7.93,0,0,1,.71-4.21,1.79,1.79,0,0,1,2.46-1,23.76,23.76,0,0,0,4.47,1.1,9,9,0,0,0-.9,6.67,6.23,6.23,0,0,1-.07,1.1c0,.52-.39.65-.65.46C88.07,140.73,86.58,140.92,85.35,140.34ZM87,143.19c.07-.07.13-.13.2-.13,2-.13,2.52.39,2.52,2.39a21.08,21.08,0,0,0,.45,5.64c.07.26.07.65-.19.65-.71,0-1.23.58-1.94.71C88.46,149.27,88.84,146.1,87,143.19Zm-5.7,17.74a35.7,35.7,0,0,1,5.12-5.24,17.26,17.26,0,0,1,4.08-2.79c.19-.06.52-.45.78.07.51,1,1.49,1.16,2.52,1.23.2,0,.52-.2.65.26,0,.15,1.13,4.28,1.17,4.34.71,1.61-.13,2.91-.85,4.21a11,11,0,0,1-2.26,2.59,31.45,31.45,0,0,1-4.08,3.56c-.51.33-.85.32-.91-.39a9.43,9.43,0,0,0-2.14-4.47A6,6,0,0,0,81.72,162C80.68,161.77,80.88,161.52,81.33,160.93Zm4.21,10.43c-2.39,1.49-4.92,3-7.9,3.24-1.29.09-2.1-1.17-1.81-2.66a33.37,33.37,0,0,1,1.81-6.15,16.23,16.23,0,0,1,2.33-3.3c.26-.33.65-.13,1-.07,2.85.78,4.4,2.87,5.24,5.64.06.19.13.45.2.64A1.93,1.93,0,0,1,85.54,171.36Zm12.7,12.11c-1.56-.45-3.18-.78-4.67-1.23-1.16-.26-2.33-.52-3.56-.71a2.56,2.56,0,0,1-1.88-1.23,8.28,8.28,0,0,1-1.68-4.41,9.05,9.05,0,0,1,1.42-3.82c.91-1.16,2.14-.84,3-.58,5.27,1.58,7.25.66,6.41,2.2-.84,1.81-1.1,3.56.84,4.86a.9.9,0,0,1,.26.84A6.11,6.11,0,0,0,99,183C99.27,183.67,98.69,183.54,98.24,183.47Zm.51-9.13c1.74-2.62,3.57-5.31,5.57-7.84a2.17,2.17,0,0,1,3.37-.06c1.56,1.49,3.11,2.85,3.82,4.92.2.84.33,1.62.59,2.4a.4.4,0,0,1-.2.51,30.46,30.46,0,0,1-8.68,3.63c-.25.07-.64,0-.9.07a7.11,7.11,0,0,1-2.53-.52C98.88,177.32,98.19,175.19,98.75,174.34Zm3.11,10.23a2.14,2.14,0,0,1-1.88-1.75c-.38-1.67-1.23-3.43.2-3,4.59,1.27,8.13-2.09,10.81-2.92.78-.25,1.75.26,2.53.52a110.92,110.92,0,0,0,11.27,2.4c-1.43,1.16-1.55,2.85-2,4.73-.45,1.68,0,3.24.2,4.92C116,187.83,106.73,185.37,101.86,184.57Zm38.73,8.68a91.06,91.06,0,0,1-13.27-3,5,5,0,0,1-2.08-.78c-1.81-1.29-1.46-3.17-1.36-4.92a8.86,8.86,0,0,1,1.69-4.73c.19-.25.58-.13.84-.06a96.34,96.34,0,0,0,9.58,1.49c1.3.06,1.3-.2,1.23-1.49s-.71-1.49-1.42-2a5.34,5.34,0,0,1-1.43-7.58l.07-.06c.84-2.72,3.24-3.24,5.57-3.89,1.15-.29,20.33-7.84,26.36-10.42,2.52-1.17,5.12-2.08,7.64-3.11,3.11-1.3,6.22-2.59,9.46-3.63a1.7,1.7,0,0,1,.9-.19,4.73,4.73,0,0,0,.39,6.54c.46.52,0,.64-.26.77-4.47,1.69-8.8,4-13.21,6-14.23,6.4-16.15,8.48-22.15,10.69-3.61,1.31-6.22,3.76-10.81,6.35-.33.19-.52.39-.39.64s.39.27.77.13a34.75,34.75,0,0,0,5.77-3.17,41.14,41.14,0,0,1,7.64-3.63c3-1,5.51-2.72,8.29-4.08,16.5-7.79,12.86-5.88,18.72-8.48a2.31,2.31,0,0,1,2.26.26c2.27,1.1,4.6,1.75,6.93,2.65.13.13.33.2.59.39-2.9,1.31-32.2,13.3-35.11,14.31a30.52,30.52,0,0,0-6.8,3.24,2.3,2.3,0,0,1-2.46.26,49.25,49.25,0,0,0-6-1c-.32,0-.71-.07-.77.45s.26.58.65.65c1.36.39,2.72.71,4.08,1.1,1.66.21-1.38,1.11-1.56,8.48a3.18,3.18,0,0,0,.26,1.17C141.69,193.38,141.18,193.32,140.59,193.25Zm2.07-.71c-.64-1.69-.06-3.24.2-4.67A10.45,10.45,0,0,1,144,184.7c.13-.26.13-.71.59-.65s.84.13,1,.59a1.73,1.73,0,0,1,.07,1.42A34.93,34.93,0,0,1,142.66,192.54Zm46.51-20.27c-2.61.71-4.86,2.46-7.45,3.3-4.41,1.42-8.55,3.63-12.83,5.37-3.69,1.49-7.25,3-10.88,4.67a117.66,117.66,0,0,0-11.85,5.63,5.42,5.42,0,0,1-1,.46c.84-1.82,1.42-3.44,2-4.93s-.26-2.52-.9-3.69c14.83-6,29.66-11.59,44.3-17.81.26.52-.07.84-.2,1.23-.58,1.69-1.36,3.37-.77,5.25C189.62,172.07,189.42,172.2,189.17,172.27Z" fill="#471280"></path><path d="M11.26,47.92A6.68,6.68,0,0,1,12,38c1.36-.91,1.23-.91.19-2.27a15.73,15.73,0,0,1-2.91-4.47c-.2-.65-.58-1.29.19-1.88s1.36-.13,2,.2a10.83,10.83,0,0,1,4.27,4.27,4.48,4.48,0,0,0,.45.59c0-1.11.07-2,0-3a11.88,11.88,0,0,1,1.3-6,1.22,1.22,0,0,1,1.16-.91,1.52,1.52,0,0,1,1.23,1.1,10.72,10.72,0,0,1,.2,3.82v3.31c1.29-1.49,2.33-3.11,4.08-3.89a2.06,2.06,0,0,1,3,1.81c0,3.27-2.89,5.57-3.19,6.2-.14.3,0,.57,1.12.8.26.06.52.71.71,1.16A7.53,7.53,0,0,1,25,47c-.07.06-.07.19-.13.39,1.16.06,2.13.13,3.23.13a1,1,0,0,0,1.11-.91c.51-3,2.13-12.43,2.46-14.12.78-3.67.21-2.86,1.81-9.58.52-2.4,1-4.73,1.49-7.19a7.51,7.51,0,0,0,.39-2.07c-.07-.46.58-.72,1.1-.72,7.18.25,5.76.54,6.86.47.55,0,.57-.38.52-1.44a32.3,32.3,0,0,0-.45-4.21c.13-.78.32-1.29.45-1.88a1.08,1.08,0,0,1,1.23-.77c2.79.84,5.7.51,8.55.64,4.21.2,8.36.39,12.57.78,2,.2,3.95,0,6,.07,1.55,0,3.17.06,4.72.13a1.27,1.27,0,0,1,1.3,1.74c-.23.92-.45,17.91-.45,18,0,6.51-1.14,14.84-.59,19.17.07.58-.52,1.36.07,1.75.45.19,1.16-.07,1.75-.07a48.55,48.55,0,0,1,6,.26c.78.26,1.36,1.56,1.23,3.11A2.46,2.46,0,0,1,84.57,53a1,1,0,0,0-.91.65,12,12,0,0,1-2.59,3.1c-.71.65-1.36.39-1.42-.64a16.07,16.07,0,0,1-.2-1.82c.07-1.36-.71-1.49-1.68-1.29-2.66.52-5.31-.13-8,0-3.24.19-6.48-.13-9.65-.26-4.41-.2-8.74.06-13,0-7.54-.17-26.64.77-33.81-.2-.45-.06-.84-.06-1.1.46a17.65,17.65,0,0,1-2.91,3.3.84.84,0,0,1-1.49-.19C7.1,54.76,8,53,6.85,51.22c-.58-.84.13-1.88.13-2.79,0-.38.45-.45.71-.45C8.92,48.11,10.15,48.43,11.26,47.92Zm19.3-.72c.1,0,8.48-.43,19.23.13a1,1,0,0,0,1.1-.84c.45-2.68.46-1.29,4.73-18.39.84-3.43,2.33-6.87,3-10.36a19,19,0,0,1,.71-2c.13-.26.39-.52.65-.39s.26.39.19.65c-.19.77-.38,1.49-.58,2.33-.58,2-.58,2,1.49,2.27a1.65,1.65,0,0,1,.58.19.57.57,0,0,0,.72-.39c.58-1.23.45-2.59,1.1-3.82.19-.39-.2-.39-.46-.45-2.22-.64-2.91-1.51-3.43-1.17A8.42,8.42,0,0,1,55,15.4c-3-.19-5.9-.45-8.88-.38s-5.57-.91-8.42-1.17c-1.29-.06-1.29.52-1.36,1.23-.19,1.94-.58,3.82-.84,5.76-.58,4-1.68,7.84-2.26,11.86C32.3,37.42,31.66,42.35,30.56,47.2Zm25.9-33.41a26.3,26.3,0,0,1,6.54.77c1.17.2,1.36.65,1.17,1.69-.26,1.49-.52,3.11-.84,4.59-.72,2.66-1.23,5.32-1.88,8-.52,1.94-1.17,3.82-1.49,5.76-.78,3.89-1.68,7.71-2.53,11.59-.19,1.1.13,1.69,1.23,1.36.48-.16,10.46.06,10.56.07.26,0,.26,0,.39-.26a10.89,10.89,0,0,0,.26-2.46c-.45-3.89,0-7.71.06-11.6,0-2.65.13-5.24.2-7.9.13-5.18.06-10.36.26-15.48.06-.9-.26-1.23-1.23-1.23-2.72-.06-5.51-.13-8.16-.45a88.5,88.5,0,0,0-9.33-.58,20.26,20.26,0,0,1-5.25-.46c-1.1-.19-1.36,0-1.23,1.17a14.58,14.58,0,0,1,.13,4.47c-.26.52,0,.52.46.52a24.67,24.67,0,0,1,3.1,0C51.67,13.79,54.39,13.2,56.46,13.79ZM37.36,51.22c2.13,0,4.34.13,6.47.13,20.44,0,25.19.39,25.78.32,1.55-.13,3.11.2,4.66.13a22.61,22.61,0,0,1,3.56-.13,49.49,49.49,0,0,0,5.32-.06c1.36,0,2.65-2.62-1.88-2.2-3.44.26-6.87-.2-10.3-.13-.1,0-52.85-.26-54.92-.13s-4.21.26-6.28.26a2.53,2.53,0,0,0-1.69.26,1,1,0,0,0-.19,1.23,1.19,1.19,0,0,0,1.16.77c1.69,0,3.37-.19,5.06-.06,3.1.19,6.15,0,9.19.19C25.83,51.88,37.24,51.22,37.36,51.22ZM23.63,45.91a5.43,5.43,0,0,0,.58-6.28,1,1,0,0,0-.65-.52c-1.29-.07-2.52-.26-3.82-.39-1.88-.19-3.76.06-5.63-.19a1.53,1.53,0,0,0-1.3.19,6.23,6.23,0,0,0-1.75,5.63,2.72,2.72,0,0,0,1.56,2.34C18.4,48.4,21.69,47.6,23.63,45.91Zm49.8-28c-1.94,0-2,0-1.94,1.94,0,3.76-.07,7.45-.2,11.21-.13,2.39.2,4.66-.13,7.06-.06.52.07,1.16,1.1,1.1s1.95-.2,2.92-.2c.45,0,.65-.13.71-.58a24,24,0,0,0,.2-3c-.13-2.79.38-5.64.38-8.42,0-1.25.8-8.06.07-8.55A4.11,4.11,0,0,0,73.43,17.93Zm3.3-8.61c.07-.52-.26-.59-.64-.59a12.07,12.07,0,0,1-3.44-.51c-.51-.13-.77,0-.77.64a70.14,70.14,0,0,1-.2,7.39c-.06.45,0,.58.65.51,1.23-.06,2.4-.51,3.63-.19.84.26,1.16-.26,1.16-1.1A34.18,34.18,0,0,1,76.73,9.32ZM60,29.26c.06-.26.06-.51-.26-.58-.78-.19-1.68-.45-2.46-.58-.26-.07-.39,0-.45.26-.39,2.52-1.23,5-1.75,7.57-.46,2.14-.46,2.08,1.68,2.53.84.2,1.17-.06,1.17-.84a26.92,26.92,0,0,1,.9-4C59.18,32.18,59.61,30.75,60,29.26Zm11.2,18.4a15.82,15.82,0,0,1,3.57-.13c.9.06,1.16-.46,1-1.17-.26-1.88.07-3.69-.06-5.57a11.45,11.45,0,0,1-3.37-.19c-1.1-.2-1.17,0-1.17,1.1,0,1.49.46,3,.07,4.53A2.16,2.16,0,0,0,71.16,47.66ZM20.45,37.1a1.68,1.68,0,0,0,1.75-.52,18,18,0,0,0,2.92-3.69,2.82,2.82,0,0,0,.64-2c-.13-.71-.39-.9-1.1-.58a8.21,8.21,0,0,0-2.46,2.27c-.84,1.1-1.23,2.46-2.07,3.56-.2.26-.45.58-.26.84S20.39,37.1,20.45,37.1Zm-9.71-6a9.38,9.38,0,0,0,.77,1.81c.91,1.17,1.82,2.4,2.6,3.63.64,1,1,1.16,2.26.58C14.49,35.16,13.72,32.05,10.74,31.08Zm7.45,5.63c.9-3.17.58-6.41.51-9.58C17,30.24,17.86,33.47,18.19,36.71ZM52.25,47.2a11.83,11.83,0,0,0,2.66,0c.77-.06.71-.51.84-1.1.13-.77-.52-.58-.78-.71s-.58-.06-.84-.13c-1.42-.39-1.49-.26-1.68,1.1A4.58,4.58,0,0,1,52.25,47.2ZM56,44.1c.19,0,.19-.13.26-.26.26-1.1.58-2.14.84-3.31a.38.38,0,0,0-.26-.51.42.42,0,0,0-.58.25,13.67,13.67,0,0,0-.78,3.18C55.43,43.84,55.81,43.9,56,44.1Zm26.36,9.45a6.87,6.87,0,0,1-1.3-.13c-.39,0-.84-.06-.9.46a1.18,1.18,0,0,0,.51,1.29c.26.13.65-.26.85-.58A12.77,12.77,0,0,0,82.37,53.55ZM61.11,22.83a11.63,11.63,0,0,1-1,3.33c-.07.19-.52.51-.13.71s.58-.07.71-.46c.26-1,.76-2,.95-3.13C61.85,22.56,61.21,22.49,61.11,22.83ZM10.28,53.42A4.36,4.36,0,0,0,9,53.29c-.24,0-.34.11-.38.21s-.28,1.19.06,1.41S10.11,53.68,10.28,53.42Z" fill="#471280"></path><path d="M178.29,156.2c0,.46-.39.52-.65.65a53,53,0,0,1-7.58,3.37c-2.27.91-4.34,1.94-6.54,2.91-1.43.59-3,1.17-4.4,1.75a2.53,2.53,0,0,0-1.24.65.4.4,0,0,1-.71-.06c-.13-.26,0-.46.26-.59,1.49-.71,3-1.42,4.47-2.07,3.68-1.53,4.86-2.42,9.52-4.21,6.45-2.76,4.87-2.48,6.09-2.78C178.09,155.56,178.29,155.75,178.29,156.2Z" fill="#471280"></path><path d="M150.89,164.88c2.59-1.29,5.31-2.13,8-3.37,1.56-.71,3.11-1.55,4.73-2.26.58-.2,1.49-.91,1.88-.2s-.78.78-1.36,1c-8.94,4.33-7.21,3-12.81,5.54C149.84,166.3,150.13,165.3,150.89,164.88Z" fill="#471280"></path><path d="M148.15,167.09c-.47.3-.72-.29-.3-.5s.82-.79,1.47-.91,1.16.17.44.66S148.6,166.81,148.15,167.09Z" fill="#471280"></path><path d="M141.5,54.46a61.7,61.7,0,0,1-8.1-1.36,48.84,48.84,0,0,1-5.83-1.88A4.55,4.55,0,0,1,125,47.66c-.19-.91,1.36-2.14,2.34-1.88a25.85,25.85,0,0,0,5.82.78,41.19,41.19,0,0,1,7.45,1.36c.91.19,1.88.39,2.79.64a3.59,3.59,0,0,1,2.72,2.08c.65,1.36.45,2.46-1,3A9,9,0,0,1,141.5,54.46Zm-6.74-2.79c.78.13,1.56.72,2.46.52.07,0,.07-.19.07-.26a7.75,7.75,0,0,1,.45-3c-.84-.19-1.75-.45-2.59-.64-.06,0-.13-.07-.19-.07-.52-.06-.84-.06-.71.65C134.36,49.26,134.47,51.62,134.76,51.67Zm-1.68-3c.23-1.2-.88-.79-1.43-1-1.42-.19-1.42-.19-1.55,1.3,0,.19-.06.45-.06.65s-.13.38.19.51C134.9,51.74,132.58,51.3,133.08,48.69Zm7.77,4c.39.13.45-.13.45-.52v-.84c0-.52.59-1,.07-1.36s-1-.26-1.49-.52c-.19-.06-.45-.13-.58-.19a.16.16,0,0,0-.26.13v2.91c0,.07.19.19.26.19A12.12,12.12,0,0,0,140.85,52.71Zm-12.5-5.64c-2.26,0-1.09,2.32-.06,2.21C128.67,49.3,130.1,47.07,128.35,47.07Zm14.9,5.64c.65,0,1.55-.13,1.55-.84s-.71-1.36-1.42-1.43S142.72,52.71,143.25,52.71Z" fill="#471280"></path><path d="M132.24,39a3.68,3.68,0,0,1-3.43,3.18c-2.14,0-4-1.3-4.09-2.92-.06-2.59,2.53-4.27,4.47-4.34S132.24,36.52,132.24,39Zm-3.43-2.33a2.65,2.65,0,0,0-2.47,2.4c-.06.71,1,1.68,2,1.75s2.27-.78,2.33-1.56C130.88,37.75,130.1,36.78,128.81,36.71Z" fill="#471280"></path><path d="M149.72,41.25c.2,1.74-1.1,2.59-2.26,3.1a3.39,3.39,0,0,1-3.76-.51C142.6,43,142,42,142.41,40.6,143.4,37.46,150,36.35,149.72,41.25Zm-1.55-.07c0-1.36-.65-1.94-2-1.94a2.54,2.54,0,0,0-2.26,2.07c0,.58,1.55,1.81,2.33,1.81A1.89,1.89,0,0,0,148.17,41.18Z" fill="#471280"></path><path d="M149.53,129.72c-.26-.2-.78.06-.84-.46-.07-.26.26-.39.52-.45A87,87,0,0,0,158.4,126a57.63,57.63,0,0,1,6.61-1.55c2.91-.65,5.76-1.49,8.74-2.14.52-.13,1.36-.71,1.69.2s-.65.9-1.36,1.16c-5.06,1.3-10.17,2.14-15.22,3.56-2.92.78-5.7,1.82-8.75,2.4A4.71,4.71,0,0,0,149.53,129.72Z" fill="#471280"></path><path d="M160.35,130a1,1,0,0,1-.91.91c-3.3.25-6.28,1.81-9.46,2.52-2,.52-4,1-6.08,1.49-.2.07-.52.2-.65-.06s.26-.39.52-.46c1.81-.64,11.07-3.75,13.79-4.6.58-.19,1.17-.25,1.75-.45C159.76,129.52,160.28,129.52,160.35,130Z" fill="#471280"></path><path d="M172.85,142a20.67,20.67,0,0,1-4.28,1.74c-2.65.78-5.31,1.75-8.09,2.53-1.56.45-3.18,1.1-4.67,1.68-.26.13-.64.39-.84,0s.2-.51.58-.64c2.46-1.1,5-2,7.52-3,2.91-1.1,5.82-1.88,8.54-3.18.46-.19.91-.26,1.43-.45C173.5,140.66,174.22,141.13,172.85,142Z" fill="#471280"></path><path d="M147.85,146.94a60.85,60.85,0,0,0,8.35-3,33.58,33.58,0,0,1,3.63-1c.39-.07,1-.26,1.16.45s-.39.78-.77.91c-1.82.65-3.76.77-5.57,1.55-2.13,1-4.41,1.29-6.62,2C145.18,148.71,147.17,147.13,147.85,146.94Z" fill="#471280"></path><path d="M177.7,174.66a1.67,1.67,0,0,1-1.1.91,17.17,17.17,0,0,1-4.27,1.68,40,40,0,0,0-5.51,2.08c-1.36.51-2.72.84-4.08,1.42a29,29,0,0,1-4.86,1.94,23.83,23.83,0,0,0-3.75,1.36c-.2.07-.52.26-.58-.13s-.07-.51.19-.64c1-.3,12.21-5.34,23.06-9.07C177.44,174.08,177.64,174.14,177.7,174.66Z" fill="#471280"></path></g></g></g></svg>