<svg xmlns="http://www.w3.org/2000/svg" viewBox="0 0 250 250"><g transform="matrix(1.25,0,0,1.25,0,0)"><defs></defs><path d="M29.29 18.849v.977a9.092 9.092 0 0 0 4.11 7.432c7.1-6.324 16.619-8.866 25.81-11.343a13.583 13.583 0 0 0-5.149-12.19 13.242 13.242 0 0 0-6.323-2.607A14.542 14.542 0 0 0 43.109.01a11.154 11.154 0 0 0-8.017 3.064 13.359 13.359 0 0 0-3.586 5.475 6.257 6.257 0 0 0-3.455-2.868 4.725 4.725 0 0 0-4.758 1.043 2.935 2.935 0 0 0-.717 3.39 3.218 3.218 0 0 0 1.824 2.933 4.216 4.216 0 0 0 4.172-.587 10.784 10.784 0 0 1 1.369-1.043 4.1 4.1 0 0 1-1.825 2.217 6.38 6.38 0 0 1-2.869.847 2.992 2.992 0 0 0 2.673.2 3.622 3.622 0 0 0 2.021-2.021 4.827 4.827 0 0 1-1.041 2.603 11.8 11.8 0 0 1-1.956 2.086 6.26 6.26 0 0 0 3.064-2.281.064.064 0 0 1 .064-.068 1.535 1.535 0 0 0-.13.521 24.554 24.554 0 0 0-1.5 4.693c-.457 1.7-.848 3.586-.131 5.215a5.483 5.483 0 0 0 1.76 2.086 9.39 9.39 0 0 0 3.846 1.76c-.912-.782-1.955-1.3-2.868-2.02a5.353 5.353 0 0 1-2.149-2.67 6.368 6.368 0 0 1 .065-3.129 10.139 10.139 0 0 1 .325-2.607zm9-17.079A11.823 11.823 0 0 1 43.7.922 16.445 16.445 0 0 0 39 2.031a15.109 15.109 0 0 0-5.411 3.585 11.681 11.681 0 0 1 4.697-3.846zM24.923 7.05a4.294 4.294 0 0 0-1.76 1.3 1.258 1.258 0 0 1 .2-.652 3.233 3.233 0 0 1 3.064-1.7 4.57 4.57 0 0 1 2.542.847c-.13-.065-.2-.065-.326-.13a6.055 6.055 0 0 0-3.72.335z"></path><path d="M148.059 179.988c-3.651 5.019-20.208 11.277-20.208 11.277-6-3-11.929-6.062-18.057-8.67 6.324-1.89 12.647-4.367 17.6-8.735 7.236 2.869 12.906 5.281 20.665 6.128z" fill="#f5f4fa"></path><path d="M122.375 182.139c-1.89.391-3.585.717-5.475 1.108a15.956 15.956 0 0 0 3-2.933 14.319 14.319 0 0 1 2.475 1.825zm9.778 1.63a33.344 33.344 0 0 0-9.517 1.89c1.76-1.63 3.651-3.259 4.759-5.41.2.652.326 1.238.521 1.89-.195.261-.652.652-.847.978.521-.2 1.043-.326 1.564-.522a14.133 14.133 0 0 1 3.52 1.174zm8.018-4.628c-3.129 1.238-6.323 2.281-9.517 3.259a54.031 54.031 0 0 1 2.673-6.323 1.711 1.711 0 0 0 .586.326c-.586 1.564-1.3 3.129-1.955 4.628a42.807 42.807 0 0 0 6-3" fill="#ffffff"></path><path d="M177.262 169.949c-4.5-32.006-9.452-61.665-15.645-93.215l3.911-.783c6.193 31.615 11.212 61.34 15.71 93.412zm-37.286-9.449c-2.021-10.69-3.846-21.967-5.606-32.853-3.064-18.9-6.323-38.46-10.626-57.364l3.911-.912c4.368 19.034 7.562 38.655 10.691 57.624 1.89 11.342 3.585 22.1 5.606 32.788z" fill="#008c6e"></path><path d="M104.058 145.505a93.505 93.505 0 0 0-21.707 14.145 16.682 16.682 0 0 0-3.781 4.237 6.26 6.26 0 0 0-.456 5.476c.978 2.086 3.325 3.194 5.541 3.78 8.083 2.282 16.622.848 25.031.848a79.436 79.436 0 0 1 17.144 1.89c6.975 1.63 13.689 4.172 20.664 5.671s14.537 1.826 21.12-.912a39.143 39.143 0 0 0 8.344-5.085c3.52-2.607 6.91-5.475 9.126-9.256s3-8.605 1.043-12.516c-1.76-3.52-5.475-5.736-9.321-6.649s-7.823-.717-11.734-.456c-5.932.326-11.929.391-17.861.652-7.561.326-15.253.652-22.619-.978-3.781-.847-7.366-2.216-11.212-2.738-3.78-.521-5.867.261-9.322 1.891z" fill="#f8f5f5"></path><path d="M155.555 151.7a18.817 18.817 0 0 1 9.126.131 52.987 52.987 0 0 1 8.67 3.129c2.477 1.043 5.019 2.151 7.5 3.194A16.431 16.431 0 0 0 169.765 162a21.832 21.832 0 0 1 10.235.912 20.893 20.893 0 0 0-9.648 3.52 72.454 72.454 0 0 1-8.93 5.215c-4.368 1.891-9.257 1.891-13.95 1.173s-9.648-1.629-14.08.066a18.81 18.81 0 0 1 8.213-3.26c-1.434-2.02-4.237-2.477-6.649-2.086s-4.758 1.369-7.17 1.63c-5.541.522-10.56-3.064-16.036-4.3-3.39-.782-6.975-.717-10.364-1.5a7.715 7.715 0 0 0-3.195-.392c-.717.131-1.368.392-2.02.522-1.5.261-3-.261-4.5-.456a12.327 12.327 0 0 0-7.171.977c3.129-4.172 10.1-2.8 14.015-6.257a33.5 33.5 0 0 0 3.26-4.107c2.737-3.259 7.04-4.889 11.212-5.671 5.8-1.109 11.8-.913 17.73-.652 6.128.326 12.385.847 18.122 3 2.023.842 4.369 2.015 6.716 1.366z" fill="#0d0003"></path><path d="M106.666 136.379a18.95 18.95 0 0 0-7.627 3.259 10.231 10.231 0 0 0-4.042 7.1c-.195 2.477.783 4.954.783 7.431a19.2 19.2 0 0 1-1.239 5.737 19.88 19.88 0 0 0-1.369 5.736 7.1 7.1 0 0 0 1.891 5.41 10.624 10.624 0 0 0 6.127-6.714c1.63-5.149-.587-10.69-.2-16.035.265-4.493 2.025-9.056 5.676-11.924z" fill="#fdb849"></path><path d="M164.877 161.41c-.978-2.412-.522-5.084-.326-7.627s.065-5.475-1.826-7.235c-1.368-1.3-3.259-1.695-5.084-2.217-6-1.564-11.668-4.237-17.535-6.323a144.36 144.36 0 0 0-10.3-3.129 45.563 45.563 0 0 0-7.758-1.629 27.349 27.349 0 0 0-16.752 3.585 18.006 18.006 0 0 0-6.519 6.193 10.225 10.225 0 0 0-.847 8.8 30.037 30.037 0 0 0 2.02 4.693 7.657 7.657 0 0 0-2.346 1.369 2.37 2.37 0 0 0-.848 2.347 3.6 3.6 0 0 0 .913 1.5 21.358 21.358 0 0 1 4.107 6.91 11.9 11.9 0 0 1 0 7.952c-.717 1.826.912 3.716 2.412 5.02a1.563 1.563 0 0 0 .782.456c.782.13 1.3-.782 1.564-1.5a18.8 18.8 0 0 0 .326-9.126 37.084 37.084 0 0 0-3.064-8.67 28.618 28.618 0 0 1 6.258-.261 29.711 29.711 0 0 1 5.346.522c2.02.521 3.78 1.7 5.671 2.412 2.672.977 8.343.847 9.386 1.238 1.695.652 1.891 2.412 2.934 2.8a32.5 32.5 0 0 0 7.887 1.565c2.282.26 4.694.586 6.388 2.151 1.109 1.043 1.695 2.477 2.8 3.585 1.043 1.108 2.934 1.695 4.042.587a3.166 3.166 0 0 0 .652-2.543 8.959 8.959 0 0 0-2.412-5.606c-.652-.652-1.369-1.238-1.956-1.955a2.851 2.851 0 0 1-.651-2.543c.456-1.434 2.281-1.825 3.78-2.02 3.524-.454 7.436-.975 10.956-1.301z" fill="#ffd340"></path><path d="M167.614 154.305a8.1 8.1 0 0 1 .978 4.237 12.316 12.316 0 0 0 .782 4.824 2.634 2.634 0 0 1 .2 2.086 2.129 2.129 0 0 1-1.63.847 5.187 5.187 0 0 1-3.585-1.3 9.126 9.126 0 0 1-2.281-2.933c-.848-1.5-2.869-8.931-2.738-10.56.126-2.872 5.015-2.742 8.274 2.799zm-57.689 7.887a57.359 57.359 0 0 1 17.339 1.043 5.062 5.062 0 0 1 1.956.717 1.992 1.992 0 0 1 .978 1.76 2.027 2.027 0 0 1-.587 1.174c-1.239 1.369-3.324 1.5-5.084 1.3a26.249 26.249 0 0 1-4.955-1.238c-1.825-.587-3.65-1.108-5.41-1.695-.913-.261-1.825-.587-2.738-.847a15.7 15.7 0 0 1-2.477-.783c-.326-.13-.326-.391-.2-.717a1.342 1.342 0 0 1 1.178-.714z" fill="#fdb849"></path><path d="M123.875 165.517a1.454 1.454 0 0 0 .065 1.173 1.388 1.388 0 0 0 1.238.522 1.28 1.28 0 0 0 .848-.522 2.024 2.024 0 0 0 .391-.847c.13-.522.195-1.695-.848-1.76a2.519 2.519 0 0 0-1.694 1.434zm4.432-1.5a.5.5 0 0 1 0 .522c-.065.065-.065.13-.13.2a1.309 1.309 0 0 1-.717.2.826.826 0 0 1-.391-.065c-.131-.065-.261-.131-.261-.261-.065-.2.13-.456.326-.587a1.36 1.36 0 0 1 .847-.195.592.592 0 0 1 .326.186zm-.782 1.5c-.261.065-.587.26-.521.586 0 .2.195.326.325.391a2.007 2.007 0 0 0 1.239.2c.391-.065.847-.2.913-.587.065-.26-.2-.521-.392-.586a3.177 3.177 0 0 0-.782-.065 1.019 1.019 0 0 0-.782.061zm.196 2.216a.527.527 0 0 1-.587.2 2.693 2.693 0 0 1-.587-.326.457.457 0 0 1 .326-.848 1.447 1.447 0 0 1 .717.326.454.454 0 0 1 .131.648zm-26.14 9.126a2.423 2.423 0 0 0 .261 1.63 1.689 1.689 0 0 0 1.108.782 1.147 1.147 0 0 0 1.173-.522 1.427 1.427 0 0 0 .131-1.043 6.164 6.164 0 0 0-.391-.977c-.261-.457-.783-1.434-1.369-1.369-.652 0-.848 1.04-.913 1.499zm2.608 4.824a.4.4 0 0 0 .521.065c.065-.065.065-.13.13-.2a1.33 1.33 0 0 0-.521-1.3c-.261-.2-1.239-.457-1.3.13-.069.457.909 1.109 1.17 1.305zm.195-2.542v.13a2.576 2.576 0 0 0 .652.978c.261.195.847.456.978 0v-.261a1.974 1.974 0 0 0-1.565-1.173c-.065 0-.13.13-.065.326z"></path><path d="M111.033 152.023a8.126 8.126 0 0 0-4.954.326 16.483 16.483 0 0 0-3.911 1.825 5.338 5.338 0 0 0-1.63 1.3c-.391.847.326.522.848.326 3.128-1.365 6.388-2.6 9.647-3.777z" fill="#fdb849"></path><path d="M117.16 161.931a32 32 0 0 0 10.43-2.151 4.2 4.2 0 0 0 2.151-1.434c.587-.978.261-2.216-.13-3.324a45.424 45.424 0 0 0-7.887-13.95 36.334 36.334 0 0 1 6.192 6.845 21.793 21.793 0 0 1 3.585 8.6c.2 1.3.131 2.607-1.043 3.39a13.391 13.391 0 0 1-6.062 2.02c-2.477.33-4.824-.061-7.236.004zm23.402 8.801c-1.173-.2-2.151-.392-3.259-.587a8.17 8.17 0 0 1-2.8-.782 3.131 3.131 0 0 1-1.3-2.151 7.074 7.074 0 0 1 .2-2.608 20.3 20.3 0 0 1 2.933-6.91 17.8 17.8 0 0 0-4.628 8.475 3.2 3.2 0 0 0 .326 2.8 3.254 3.254 0 0 0 1.825.912 32.656 32.656 0 0 0 6.703.851zm21.381-18.774c.326.456 1.174.782 1.63 1.108l1.76 1.174a6.216 6.216 0 0 1 1.955 1.955 3.067 3.067 0 0 1 0 3 13.163 13.163 0 0 0-.912 3.585 22.4 22.4 0 0 0-4.433-10.822z"></path><path d="M159.6 149.742a9.513 9.513 0 0 1 4.5 2.8c1.434 1.564 2.021 4.106 2.347 6.127a14.847 14.847 0 0 1 .065 4.5c-.195 1.5-.847 2.8-1.173 4.3-.261 1.369.521 2.543 1.043 3.716a6.039 6.039 0 0 1 .782 2.8 4.329 4.329 0 0 1-1.238 3.129 5.164 5.164 0 0 1-3.26.912c-1.3.066-2.672.522-3.976.326-1.76-.326-2.608-1.695-3.52-3.063-.522-.783-1.239-1.5-1.695-2.282-1.3-2.086-3.585-3.259-5.606-4.563-2.412-1.564-3.39-3.259-3.781-6.258a11.087 11.087 0 0 1 .391-4.367c.913-3.52 2.869-5.346 6.128-6.91a12.138 12.138 0 0 1 8.993-1.167z" fill="#ffd340"></path><path d="M165.007 175.946a2.975 2.975 0 0 0 .913-2.477c-.261-.912-1.369-.847-2.086-.847-.652 0-3.064-.261-3.455.2-1.63 1.629.652 4.106 2.412 4.367a3.233 3.233 0 0 0 2.216-1.243z"></path><path d="M153.73 154.37a3.2 3.2 0 0 0-1.108-.391c-2.347-.457-4.694-.913-7.106-1.3a3.664 3.664 0 0 0-2.216.065 3.2 3.2 0 0 0-1.3 1.956 63.29 63.29 0 0 0-2.607 9.908 2.032 2.032 0 0 0 .326 1.956c.652.521 1.629.065 2.346-.391 3.39-2.478 6-5.867 8.6-9.126a3.226 3.226 0 0 1 1.5-1.3c.652-.261 1.434.456 1.891.195.652-.399.13-1.311-.326-1.572z" fill="#fdb849"></path><path d="M157.576 167.146a1.481 1.481 0 0 0-.587-1.173 3.008 3.008 0 0 0-1.173-.652 17.689 17.689 0 0 1-3.651-1.434c.2.326.131.717.326 1.043a2.424 2.424 0 0 0 .848 1.108 3.611 3.611 0 0 0 .782.261c.652.195 2.998.391 3.455.847zm5.475-.195c.131-.457.131-.848.522-1.174s.912-.586 1.3-.912a2.545 2.545 0 0 0 .912-1.108 2.831 2.831 0 0 1-.065 1.043 2.463 2.463 0 0 1-.326.977 1.868 1.868 0 0 1-.847.522 3.762 3.762 0 0 0-1.496.652z"></path><path d="M165.072 173.73c-.782 0-1.63.065-2.412.13a1.265 1.265 0 0 0-.652.2.9.9 0 0 0-.326 1.043 2.009 2.009 0 0 0 .652.978 1.094 1.094 0 0 1 .2-1.3 2.856 2.856 0 0 1 1.173-.587c.452-.138.909-.334 1.365-.464z" fill="#ffffff"></path><path d="M155.1 175.034a9.648 9.648 0 0 0-3.325-3.911c-1.238-.913-2.738-1.434-4.041-2.217a6.616 6.616 0 0 1-3.064-3.324 6.878 6.878 0 0 0 .978 3.455 6.3 6.3 0 0 0 1.76 1.434c2.606 1.564 5.931 2.216 7.692 4.563z" fill="#fdb849"></path><path d="M14.3 180.184h-.13c-.326 0-.848-.2-1.108-1.174a11.186 11.186 0 0 1-.065-4.889 251.452 251.452 0 0 1 10.169-43.283l.977.326a245.7 245.7 0 0 0-10.169 43.153 10.462 10.462 0 0 0 0 4.5c.065.326.2.456.261.456s.065 0 .261-.13a9.61 9.61 0 0 0 2.933-4.368c5.932-13.754 10.691-28.225 15.319-42.24l.978.326c-4.629 14.015-9.322 28.486-15.319 42.3-.847 1.891-1.7 3.716-3.325 4.824-.198.003-.459.199-.782.199zm24.312-4.172h-.131c-.521-.131-.652-.717-.782-1.239a19.88 19.88 0 0 1 0-4.824c1.043-14.666 2.868-29.2 5.28-43.283l.978.2c-2.412 14.014-4.172 28.551-5.215 43.153a21.29 21.29 0 0 0 0 4.563 13.846 13.846 0 0 0 1.3-4.107c3.063-13.754 5.54-28.226 7.887-42.241l.978.2c-2.347 14.015-4.824 28.486-7.888 42.306a13.092 13.092 0 0 1-1.694 4.823c-.125.123-.388.449-.713.449zm31.875 5.932a1.113 1.113 0 0 1-.782-.392c-1.238-1.108-1.89-2.933-2.477-4.823-4.5-13.755-8.083-28.291-11.538-42.306l.978-.261c3.455 14.015 7.04 28.487 11.473 42.241.586 1.76 1.173 3.455 2.216 4.367l.065.065c.065-.065.065-.2.131-.326a13.012 13.012 0 0 0 0-4.5 316.12 316.12 0 0 0-7.627-43.153l.978-.261a317.831 317.831 0 0 1 7.626 43.283 14.934 14.934 0 0 1 0 4.824c-.2.913-.651 1.108-.912 1.173 0 .069-.065.069-.131.069z"></path><path d="M80.07 131.1c-.652 3.063-13.233 9.582-15.123 10.82a13.638 13.638 0 0 1-6 1.826c-9.844 1.3-22.75.13-32.528-1.369-7.366-1.108-9.517-3.651-10.1-7.627-.913-5.867 1.89-11.864 5.41-14.341s7.562-2.281 11.408-2.021c9.647.652 19.36 1.239 29.008 1.891 1.629.13 12.189-4.042 13.689-3.129 3.388 2.215 5.279 8.994 4.236 13.95z" fill="#008c6e"></path><path d="M79.679 123.211c-2.608 1.89-5.215 3.846-7.953 5.671-1.369.913-2.8 1.76-4.172 2.608a6.238 6.238 0 0 0-2.933 3.389c-.131.457-.652.391-.913.131a36.862 36.862 0 0 1-7.04 2.216c0 .391-.326.717-.717.456-2.933-2.086-6-4.367-9.713-4.693a24.422 24.422 0 0 0-4.889.391 8.333 8.333 0 0 1-2.542 0 15.592 15.592 0 0 1-2.477-.782 29.042 29.042 0 0 0-9.322-2.216c-3.259-.131-7.431.26-10.625-1.109a16.706 16.706 0 0 0-.13 5.411c.652 3.976 2.8 6.518 10.1 7.627 9.777 1.5 22.684 2.672 32.527 1.368a13.616 13.616 0 0 0 6-1.825c1.891-1.238 14.472-7.757 15.124-10.821a16.026 16.026 0 0 0-.325-7.822z" fill="#14d29b"></path><path d="M102.1 68.911c-2.934 1.5-7.04.978-10.3.457-6.323-1.109-10.755-3.846-16.492-3.651-1.89.065-4.107.2-5.475-1.173a8.851 8.851 0 0 1-1.5-2.217 15.372 15.372 0 0 0-3.52-4.171c-3.52 2.086-7.5 4.563-9.452 8.148 2.738 3.911 5.02 5.867 8.54 9.061a6.628 6.628 0 0 0 2.281 1.5 6.276 6.276 0 0 0 2.477.13c5.345-.456 10.691-.912 16.1-1.3 2.868-.2 5.671-.326 8.539-.457 3.064-.13 5.932-.326 8.931.522a8.378 8.378 0 0 0 1.76.326 4.655 4.655 0 0 0 1.3-.261l5.475-1.564c.326-.066.717-.326.587-.652-.065-.131-.2-.2-.261-.261-1.695-.782-3.846.13-5.541-.587 1.043-.586 2.217-1.043 3.325-1.629a6.9 6.9 0 0 1 2.738-.978c1.695-.065 3.324 1.238 4.889.652-.522-.457-.913-1.108-1.434-1.5a2.1 2.1 0 0 0-1.891-.586 3.342 3.342 0 0 1 2.086.391 2.6 2.6 0 0 0 2.086.13 5.332 5.332 0 0 0-2.868-2.216 6.853 6.853 0 0 0-1.63-.065c-.912.065-1.825.13-2.672.195a13.175 13.175 0 0 1 1.369-.652 3.431 3.431 0 0 1 .782-.195 3.711 3.711 0 0 1 1.434.456 3.916 3.916 0 0 0 1.434.587 1.273 1.273 0 0 0 1.3-.652c-.587-.391-1.109-.913-1.7-1.3.2 0 .326-.2.391-.391-1.043-.065-1.956-.847-3-.847a4.605 4.605 0 0 0-2.02.652c-2.785 1.487-5.393 2.729-8.068 4.098z" fill="#c69292"></path><path d="M51.518 49.356c-1.76-1.435-3.65-3.325-4.237-5.541s0-5.606.065-7.888c-2.477.391-5.866.782-7.757-.847-1.303 6.32-6.975 10.82-9.843 16.62 2.412.131 4.824 1.369 6.975 2.412 2.151 1.108 4.628 2.021 6.975 1.5 1.7-.391 4.042-1.108 5.15-2.477a18.9 18.9 0 0 0 2.672-3.779z" fill="#bb9084"></path><path d="M41.023 40.686a9.564 9.564 0 0 0 3 2.086 2.742 2.742 0 0 0 3.064-.848c-.065-1.955.26-4.3.326-6-2.477.391-5.867.782-7.757-.847a16.141 16.141 0 0 1-.978 3 12.484 12.484 0 0 0 2.345 2.609z"></path><path d="M78.831 106.849c1.565.066 5.476 2.217 6.845 2.934 1.89 1.043 3.781 2.412 4.628 4.432 1.369 3.195-.326 6.715-1.173 10.1-1.239 5.15-.326 10.495-1.109 15.71-.847 5.476-2.411 10.821-3.324 16.231-.391 2.347-.847 4.954.326 7.106a22.084 22.084 0 0 0 4.433 5.41c2.085 1.956 4.041 2.607 6.779 3.455a4.981 4.981 0 0 1 2.8 1.695c.521.847-.326 1.825-1.369 2.151-3.129 1.173-6.584.586-9.778-.391s-6.258-2.347-9.517-2.738a6.517 6.517 0 0 1-2.282-.522c-1.76-.912-2.02-3.389-1.434-5.215.652-2.02 1.826-3.78 2.282-5.866a20.778 20.778 0 0 0 .326-5.671 112.49 112.49 0 0 0-1.76-11.278c-.522-3.194-1.108-6.714.195-9.647a32.136 32.136 0 0 0 1.76-5.541 3.6 3.6 0 0 0-.13-2.738c-.978-1.5-3.259-.912-4.824-1.76-.062-4.689 3.914-17.922 6.326-17.857z" fill="#c69292"></path><path d="M100.082 174.317a5.2 5.2 0 0 0-2.868-1.956c-2.869-.912-5.085-1.369-7.236-3.389a23.864 23.864 0 0 1-4.693-5.606c-1.239-2.217-.783-4.889-.391-7.366q.487-2.837 1.173-5.672a16.854 16.854 0 0 1-3.846 1.695 8.761 8.761 0 0 1-4.5.131 5.655 5.655 0 0 1-1.108-.457 34.793 34.793 0 0 1 .391 3.651 22.063 22.063 0 0 1-.326 5.866c-.456 2.152-1.76 3.977-2.412 6.063-.652 1.955-.326 4.5 1.5 5.41a6.183 6.183 0 0 0 2.411.522c3.455.456 6.78 1.825 10.1 2.868s7.04 1.629 10.365.391c1.049-.261 1.958-1.239 1.44-2.151z" fill="#f7f6fa"></path><path d="M77.006 156.912c1.239 1.369 3.194 1.108 4.824.391a17.776 17.776 0 0 0 3.064-1.76c.325-1.76.717-3.455 1.108-5.215a16.854 16.854 0 0 1-3.846 1.695 8.761 8.761 0 0 1-4.5.131 5.655 5.655 0 0 1-1.108-.457 34.793 34.793 0 0 1 .391 3.651 12.589 12.589 0 0 1 .067 1.564zm23.076 17.405a4.808 4.808 0 0 0-2.282-1.76 3.327 3.327 0 0 1-.977 1.369 9.726 9.726 0 0 1-3.195 1.564 9.768 9.768 0 0 0-2.607 1.3 14.159 14.159 0 0 0 7.562-.261c1.108-.322 2.017-1.3 1.499-2.212zM78.7 169.884a7.882 7.882 0 0 0-3.911-4.041c-.2.456-.391.977-.587 1.434-.652 1.955-.326 4.5 1.5 5.41a6.188 6.188 0 0 0 2.412.522c.456.065.848.13 1.3.195a9.986 9.986 0 0 0-.714-3.52z"></path><path d="M52.627 101.309a216.076 216.076 0 0 1 28.812 5.606 59.015 59.015 0 0 0-6.128 21.315c-9.517-.521-19.1-1.76-28.551-2.281-2.412-.13-5.085-.391-6.845-2.086a7.045 7.045 0 0 1-1.89-4.172c-.587-4.237 1.369-8.474 4.237-11.668 2.803-3.194 6.714-4.433 10.365-6.714z" fill="#fdb849"></path><path d="M70.422 60.7C64.23 59 59.8 53.853 55.169 49.421a16.634 16.634 0 0 0-3.585-2.8c-.522-.261-3.195-.848-3.455-1.239 1.955 3.781 3 4.954 0 5.671a4.862 4.862 0 0 1-1.369.131 13.63 13.63 0 0 1-7.1-2.217c-1.891-1.238-3.912-3.846-6.389-3.846-5.41 4.368-10.429 9.061-13.754 15.189a35.8 35.8 0 0 0-3.194 8.213c-3.846 14.015-2.151 29.6-.13 44.131.13.782 2.737 3.259 3.976 2.151C31.441 104.633 44.022 94.529 59.6 95.768c.522-9.452 1.63-13.233 1.239-22.685 4.238-3.324 5.737-8.735 9.583-12.383z" fill="#f7f6fa"></path><path d="M58.95 66.043a97.427 97.427 0 0 0-1.76-6.193 39.9 39.9 0 0 0-1.76-4.628c-.392 0-.783-.065-1.174-.065a61.161 61.161 0 0 1 2.021 5.8c1.76 6.388 3.324 12.776 4.628 19.229.065-1.629.131-3.324.065-5.345-.652-2.931-1.303-5.865-2.02-8.798z"></path><path d="M58.624 13.112a48.476 48.476 0 0 1 1.825 11.408c.13 3.455.2 7.887-1.63 10.951a9.42 9.42 0 0 1-5.41 3.911 19.9 19.9 0 0 1-9.191.2 10.658 10.658 0 0 1-5.8-2.869c-1.564-1.629-2.281-3.846-3.064-5.931a51.611 51.611 0 0 1-2.412-8.214c-.717-3.846-1.173-9.061.783-12.581a13.2 13.2 0 0 1 8.667-6.327 14.542 14.542 0 0 1 12.386 3.585 11.223 11.223 0 0 1 3.846 5.867" fill="#bb9084"></path><path d="M49.563 10.244a13.361 13.361 0 0 1-3.585-.326 28.455 28.455 0 0 0-5.737-.913c-5.345.131-4.824 8.931-4.889 9.844-.26 2.607.261 5.214.457 7.822a24.187 24.187 0 0 0-2.8-1.63c-.848-3-1.565-11.6.391-15.188a13.891 13.891 0 0 1 23.138-1.369 13.8 13.8 0 0 1-4.629 1.5 14.289 14.289 0 0 1-2.346.26z"></path><path d="M32.354 23.672a2.774 2.774 0 0 0-2.673.065 2.313 2.313 0 0 0-.652 1.174 5.231 5.231 0 0 0 1.043 3.976 10.077 10.077 0 0 0 6 4.042 2.007 2.007 0 0 0 1.826-.261 1.484 1.484 0 0 0 .391-1.043 5.277 5.277 0 0 0-.848-3.129 9.43 9.43 0 0 0-5.087-4.824z" fill="#bb9084"></path><path d="M36.4 30.712c-1.173-3.846-3.324-4.758-5.475-5.8a16.385 16.385 0 0 1 3.52 3.846 3.827 3.827 0 0 0-2.412.065 20.41 20.41 0 0 1 4.367 1.89" fill="#c69292"></path><path d="M49.628 33.841a10.344 10.344 0 0 1-3.846-.652l.261-.717A10.816 10.816 0 0 0 54 32.146l.326.718a10.8 10.8 0 0 1-4.698.977z"></path><path d="M50.41 28.692a69.063 69.063 0 0 0-.847-8.149c1.7 2.8 2.281 5.215 4.432 6.715a29.274 29.274 0 0 0-3.585 1.434z" fill="#c69292"></path><path d="M40.111 22.76c1.043-2.217 2.542-3.52 4.172-3.651a3.98 3.98 0 0 1 3.976 2.738 5.989 5.989 0 0 1-3.781 1.7 6.461 6.461 0 0 1-4.367-.787zm11.668-.783c1.043-2.216 2.542-3.52 4.172-3.65 1.564-.2 3.129.782 3.976 2.738a5.988 5.988 0 0 1-3.78 1.7 6.932 6.932 0 0 1-4.368-.788z" fill="#ffffff"></path><path d="M44.8 19.305a11.693 11.693 0 0 1-.586 4.237h.26a6.264 6.264 0 0 0 3.781-1.7 3.981 3.981 0 0 0-3.455-2.537zm11.738-.782a11.77 11.77 0 0 1-.652 4.237h.261a6.263 6.263 0 0 0 3.78-1.7 3.73 3.73 0 0 0-3.389-2.537z"></path><path d="M44.413 20.283a3.255 3.255 0 0 1 2.477.326 7.071 7.071 0 0 1 1.11.847 3.651 3.651 0 0 0-3.78-2.347c-1.565.2-3.129 1.434-4.172 3.651a10.849 10.849 0 0 1 4.365-2.477zm11.342-.457a5.054 5.054 0 0 1 2.412.131 5.554 5.554 0 0 1 1.63.847 4 4 0 0 0-3.911-2.604 6.018 6.018 0 0 0-4.172 3.715 8.049 8.049 0 0 1 4.041-2.089z" fill="#c69292"></path><path d="M49.3 16.828a10.845 10.845 0 0 0-5.41 0 9.361 9.361 0 0 0-4.431 2.672 23.068 23.068 0 0 1 6 .066 4.968 4.968 0 0 0 1.956-.131 2.394 2.394 0 0 0 1.885-2.607zm9.91 0a2.97 2.97 0 0 0-1.76-1.434 6.664 6.664 0 0 0-2.281-.326 5.254 5.254 0 0 0-2.477.456c0 .326-.261.782-.261 1.043a2.079 2.079 0 0 0 .13.913 1.613 1.613 0 0 0 1.239.586 10.956 10.956 0 0 0 3.064-.912 5.547 5.547 0 0 1 2.346-.326z"></path><path d="M75.7 143.093a1.267 1.267 0 0 0-.652-.652l-2.148-1.565a29.469 29.469 0 0 1-5.606-6.127c-1.238-1.89-3.259-4.759-3.389-7.04-.2-3.129.847-6.649 1.5-9.648.717-3.194 1.564-6.388 2.151-9.582a45.692 45.692 0 0 0 .587-8.93 42.078 42.078 0 0 1 .717-9.909c.847-3.324 2.477-6.909 1.173-10.1-.847-2.021-2.738-3.325-4.628-4.433a10.088 10.088 0 0 0-4.433-1.565c-2.412-.065-4.563 1.369-6.453 2.869a109.365 109.365 0 0 0-12.387 10.948 30.411 30.411 0 0 0-.066 3.455 35.055 35.055 0 0 0 8.6 21.12c1.76-3.846 3.324-7.888 4.759-11.864-1.3 2.933-.718 6.454-.2 9.648.587 3.454 1.369 6.909 1.7 10.429a20.982 20.982 0 0 1-.065 5.346c-.261 1.955-1.63 3.846-2.477 5.671a7.775 7.775 0 0 0-.848 2.346 4.037 4.037 0 0 0 2.412 4.433c1.108.522 2.412.456 3.585.913a11.684 11.684 0 0 1 3.716 2.738c2.346 2.151 5.671 4.628 8.995 4.693h.066a3.466 3.466 0 0 0 3.194-1.956 1.773 1.773 0 0 0 .197-1.238z" fill="#bb9084"></path><path d="M76.224 143.419a1.9 1.9 0 0 0-.717-.717 27.792 27.792 0 0 1-2.217-1.63 31.425 31.425 0 0 1-5.8-6.323c-1.3-1.956-3.39-4.889-3.52-7.236-.2-3.194.847-6.844 1.564-9.908l.2-.782a16.427 16.427 0 0 1-1.369.912 6.177 6.177 0 0 1-5.606.913 7.343 7.343 0 0 1-2.282-1.369c.131.848.2 1.63.326 2.477a21.962 21.962 0 0 1-.065 5.476c-.326 2.021-1.7 3.976-2.607 5.8a8.39 8.39 0 0 0-.913 2.412 4.246 4.246 0 0 0 2.477 4.563c1.174.522 2.542.457 3.716.913a11.723 11.723 0 0 1 3.846 2.8c2.477 2.216 5.867 4.758 9.321 4.889h.066a3.6 3.6 0 0 0 3.324-2.021 1.33 1.33 0 0 0 .256-1.169z" fill="#f5f4fa"></path><path d="M56.864 121.581c2.151 1.826 5.084 1.435 7.692.131q.487-2.151.977-4.107l.2-.782a16.427 16.427 0 0 1-1.369.912 6.177 6.177 0 0 1-5.606.913 7.343 7.343 0 0 1-2.282-1.369c.131.848.2 1.63.326 2.477-.002.587.062 1.244.062 1.825zm.717 12.386a9.549 9.549 0 0 0-3.26-3.39l-.2.391a8.379 8.379 0 0 0-.913 2.412 4.246 4.246 0 0 0 2.477 4.563 12.935 12.935 0 0 0 2.738.652 5.683 5.683 0 0 0-.842-4.628zm17.926 8.733c-.2-.131-.326-.261-.522-.391a22.46 22.46 0 0 1-3.324 1.629 5.834 5.834 0 0 0-2.021 1.239 3.22 3.22 0 0 0-.456.521 10.768 10.768 0 0 0 3.455.848h.061a3.6 3.6 0 0 0 3.324-2.021 1.483 1.483 0 0 0 .2-1.174 2.34 2.34 0 0 0-.717-.651z" fill="#f7f6fa"></path><path d="M55.755 98.506a7.683 7.683 0 0 0 .261-3.586c-.065-1.043-.326-2.02-.326-3.063-.065-3.781 3.716-6.258 6.388-8.214a10.762 10.762 0 0 1 5.867-1.629 8.427 8.427 0 0 1 2.542.26 6.914 6.914 0 0 0-.521-2.8c-.847-2.02-2.738-3.324-4.628-4.432a10.075 10.075 0 0 0-4.433-1.565c-2.412-.065-4.563 1.369-6.453 2.868a109.384 109.384 0 0 0-12.386 10.949A30.644 30.644 0 0 0 42 90.749a35.049 35.049 0 0 0 8.605 21.12c1.629-3.52 3.063-7.171 4.367-10.756.262-.713.588-1.89.783-2.607z" fill="#c69292"></path><path d="M54.778 107.762c-5.476-6.193-7.953-16.1-6.649-24.249a10.233 10.233 0 0 1 1.89-4.954A155.549 155.549 0 0 0 18.6 113.5c-.913 1.434 1.76 5.932 2.542 7.04a16.741 16.741 0 0 0 5.932 5.15 20.31 20.31 0 0 0 10.56 1.825c3-.2 7.3-.326 9.712-2.281a11.462 11.462 0 0 0 2.412-3.39c2.412-4.695 4.242-8.867 5.02-14.082z" fill="#ffd340"></path><path d="M49.563 45.314a5.9 5.9 0 0 1-1.7-1.89c-.326 1.89.978 3.65 1.3 5.606a.9.9 0 0 1 0 .586 1.686 1.686 0 0 1-1.76 1.108 6.53 6.53 0 0 1-3.064-.977 62.07 62.07 0 0 1-5.671-3.39 16.417 16.417 0 0 0-5.671-3c-.261.848-.522 1.63-.717 2.477a14.546 14.546 0 0 1 5.54 3.064 24.851 24.851 0 0 0 5.15 3.52 6.7 6.7 0 0 0 6 .065 3.188 3.188 0 0 0 1.565-1.76 4.575 4.575 0 0 0-.066-2.8c-.254-.914-.645-1.696-.906-2.609zM36 87.554a8.5 8.5 0 0 0 4.954-4.237c1.825-3.455 4.628-12.906 5.606-14.8.978-1.825-3.715 2.673-7.431 7.5-3.842 4.888-4.689 8.865-3.129 11.537z"></path><path d="M43.175 76.017c.717-1.3 1.368-2.608 2.086-3.846a16.637 16.637 0 0 0 1.629-4.563 15.232 15.232 0 0 0-3.39-3.977c-3.52 2.086-7.5 4.563-9.451 8.148 2.216 3.129 4.237 6.519 6.714 8.8a14.216 14.216 0 0 1 .847-1.76 27.32 27.32 0 0 1 1.043-1.891 4.1 4.1 0 0 1 .522-.911zM54.256 8.549c-.456.065-5.019.131-5.019.131-2.477-.261-4.954-.913-7.366-1.174a6.263 6.263 0 0 0-4.237.587 5.221 5.221 0 0 0-2.021 4.237c-.2 3.455 1.3 6.714 2.282 10.1l-.2 1.173a20.846 20.846 0 0 0-.978 3.976 6.4 6.4 0 0 0 .456 2.738c-.065.065-.065.2-.13.261-.913 2.347-.782 5.28 1.043 6.975-.978-1.63-.652-3.585.065-5.345.652.912 1.369 1.76 2.086 2.607a28.578 28.578 0 0 1-1.955-2.933c.651-1.63 1.564-3.26 1.694-5.02a12.159 12.159 0 0 0-.976-5.21c.391-2.673-.652-5.476-.326-8.149a3.318 3.318 0 0 1 .391-1.369 3.5 3.5 0 0 1 2.086-1.5 19.606 19.606 0 0 1 6.192-.521 15.81 15.81 0 0 0 3.064-.261 5.74 5.74 0 0 0 3.849-1.303zm-15.97 18.709a15.349 15.349 0 0 1-.913 2.411 8.864 8.864 0 0 1-.2-1.89 11.9 11.9 0 0 1 1.043-3.585 8.108 8.108 0 0 1 .07 3.064zM38.025 12c-.782 1.76-.522 3.781-.261 5.671a24.444 24.444 0 0 1-.587-3 8.61 8.61 0 0 1 .066-3.651 3.787 3.787 0 0 1 2.281-2.672 5.845 5.845 0 0 1 3 .065c.456.065.977.2 1.434.261C41.545 8.745 39 9.853 38.025 12z"></path><path d="m33.006 192.047-3.977-.521c4.433-31.811 9.843-63.817 15.971-95.171l3.911.782a1777.198 1777.198 0 0 0-15.905 94.91zM75.9 200l-3.911-.717c2.281-12.19 3.976-24.771 5.8-38.134 2.412-17.926 4.889-36.5 8.931-53.974l3.911.913c-3.976 17.339-6.454 35.787-8.865 53.648-1.892 13.298-3.587 26.009-5.866 38.264z" fill="#008c6e"></path><path d="m179.543 81.948-85.328 29.334L33.853 94.92v-6.192l145.69-12.972v6.192z" fill="#14d29b"></path><path d="M123.418 66.695 33.853 88.728l60.362 16.361 85.328-29.333-56.125-9.061z" fill="#008c6e"></path><path d="m73.942 82.47 16.297 3.39 24.184-6.454v-2.281H99.234l-25.292 4.367v.978z" fill="#ffd340"></path><path d="m73.942 81.492 16.166 2.738.131 1.63-16.297-3.39v-.978z"></path><path d="M101.711 93.877a4.471 4.471 0 0 0-1.89-4.106 8.218 8.218 0 0 0-4.433-1.5 8.091 8.091 0 0 0-3.911.587 3.975 3.975 0 0 0-2.277 3.064c-.2 1.825 2.607 2.868 3.976 3.259 2.799.848 6.254.848 8.535-1.304z" fill="#fdb849"></path><path d="M100.929 92.509a2.577 2.577 0 0 0-.521-2.8 1.846 1.846 0 0 0-1.043-.392 3.575 3.575 0 0 0-2.217 1.174c1.369.453 2.999.975 3.781 2.018z"></path><path d="M95.323 74.387a4.231 4.231 0 0 0-1.76-.522.239.239 0 0 1-.2-.065 8.021 8.021 0 0 0-1.826-1.5 2.39 2.39 0 0 0-.912-.456 6.246 6.246 0 0 0-1.108-.066 27.92 27.92 0 0 0-3.26.326 2.814 2.814 0 0 0-1.043 0c-1.694.2-3 1.434-4.432 2.217-2.934 1.5-7.04.977-10.3.456-6.318-1.107-10.75-3.845-16.482-3.649-1.89.065-4.106.195-5.475-1.174a8.816 8.816 0 0 1-1.5-2.216 15.364 15.364 0 0 0-3.525-4.172c-3.52 2.086-7.5 4.563-9.451 8.148 2.737 3.911 6.714 6.714 10.234 9.909a6.628 6.628 0 0 0 2.281 1.5 6.3 6.3 0 0 0 2.477.13c10.234-.847 15.71-2.672 28.291-3.064 2.021-.065 4.5.457 6.127-1.043a7.412 7.412 0 0 1 2.282-1.76 5.128 5.128 0 0 1 2.8-.065 8.83 8.83 0 0 0 3.459.13c.456-.131.847-.2 1.043-.587a.9.9 0 0 1 .195-.261.241.241 0 0 1 .2-.065h.062c.652-.326 1.108-.847.782-1.173.455-.065 1.563-.587 1.041-.978z" fill="#bb9084"></path><path d="M25.183 55.613a8.767 8.767 0 0 1 4.563-4.954c3.586-1.5 6.845 0 9.257 2.868 1.76 2.086 3.194 4.5 4.889 6.649.391.457 4.954 5.28 5.084 5.085a72.68 72.68 0 0 1-7.887 11.929c-2.477 2.868-5.737 6.323-5.02 10.5-1.238-1.565-2.412-3-3.129-3.911-1.173-1.5-2.281-3-3.259-4.5-2.868-4.3-5.215-9.322-5.606-14.537a18.256 18.256 0 0 1 1.108-9.129z" fill="#f5f4fa"></path><path d="M145.19 80.319c3.064-1.825 7.171-4.368 10.039-6.323a210.959 210.959 0 0 0-20.077-8.148 117.9 117.9 0 0 0-11.017 6.844c7.692 2.282 13.689 5.085 21.055 7.627z" fill="#ffffff"></path><path d="M140.367 76.734c1.5.651 3 1.3 4.432 2.02 1.108-.847 2.217-1.629 3.325-2.412.978-.651 1.955-1.3 3-1.89-1.173-.587-2.412-1.173-3.65-1.76a1.3 1.3 0 0 1-.522-.261 562.77 562.77 0 0 0-6.585 4.303z" fill="#008c6e"></path><path d="M139.845 70.932c-.978.652-2.021 1.239-2.933 1.89a29.9 29.9 0 0 0-2.282 1.695c.652.261 1.369.522 2.021.782.782.326 1.565.587 2.282.913a74.307 74.307 0 0 1 6.714-4.3c-1.434-.652-2.934-1.239-4.433-1.825a15.4 15.4 0 0 0-1.369.845z" fill="#14d29b"></path><path d="m139.91 69.5-3.129-1.173a13.414 13.414 0 0 0-1.5-.522 2.63 2.63 0 0 1-.587.326 74.559 74.559 0 0 0-6.257 4.172 98.628 98.628 0 0 1 4.693 1.695c2.217-1.567 4.499-2.998 6.78-4.498z" fill="#ffd340"></path><path d="M147.342 81.362c1.955-2.086 4.367-4.954 6.062-7.1a448.007 448.007 0 0 0-27.313-2.347 54.989 54.989 0 0 0-6.714 7.692c9.843.255 18.252 1.233 27.965 1.755z" fill="#ffffff"></path><path d="M139.584 79.537c2.086.195 4.107.391 6.128.651.587-.847 1.108-1.76 1.76-2.607a17.756 17.756 0 0 1 1.828-2.151c-1.695-.2-3.39-.456-5.15-.652-.26 0-.521-.065-.782-.065-1.241 1.629-2.545 3.194-3.784 4.824z" fill="#f7f6fa"></path><path d="M134.826 74.974c-.587.717-1.239 1.368-1.76 2.086a14.179 14.179 0 0 0-1.173 1.825l2.737.195c1.043.065 2.086.2 3.129.261a36.971 36.971 0 0 1 3.977-4.824l-6.063-.586a10 10 0 0 0-.847 1.043z" fill="#f5f4fa"></path><path d="M133.783 73.8c-1.369-.13-2.8-.195-4.172-.326-.652-.065-1.3-.065-1.956-.13l-.391.391a33.393 33.393 0 0 0-3.65 4.628c2.086.131 4.172.2 6.258.391 1.303-1.629 2.607-3.254 3.911-4.954z" fill="#f8f5f5"></path><ellipse cx="149.029" cy="77.393" rx=".913" ry=".391" transform="rotate(-13.409 149.034 77.394)"></ellipse><path d="M152.035 79.276a2.914 2.914 0 0 1-1.3-.261l.326-.847a3.66 3.66 0 0 0 2.477-.131 5.11 5.11 0 0 0 2.934-3 3.027 3.027 0 0 0-.522-2.738 3.526 3.526 0 0 0-3.52-1.173A4.3 4.3 0 0 0 149.036 74a3.894 3.894 0 0 0 .457 3.064l-.717.456a4.841 4.841 0 0 1-.587-3.781 5.25 5.25 0 0 1 4.111-3.459 4.292 4.292 0 0 1 4.367 1.5 3.783 3.783 0 0 1 .652 3.52 5.708 5.708 0 0 1-3.455 3.586 3.793 3.793 0 0 1-1.829.39zM89 82.665l-2.672-1.434q2.443-27.964 6.453-55.147c12.125-.782 26.335-1.108 41.132-2.021l2.347 1.3L89 82.665zm27.769 9.909c-2.151-.065-12.255-4.5-13.493-5.02s-3.259-1.955 3.716-3.52c6.909-1.564 6.648-3.259 19.034 2.282z"></path><path d="M128.633 71.975C130.589 55.418 133 41.142 136.26 25.3c-13.689 1.173-29.79 1.369-40.806 2.216Q91.445 54.7 89 82.665c13.037-2.865 26.922-6.648 39.633-10.69z" fill="#fdb849"></path><path d="M118.855 66.173c1.108-.325 3.194 2.021 4.172 5.215.978 3.064 1.5 6.714-.065 7.171-1.564.521 1.76 1.629 2.607-.065s.261-4.629-.586-7.432-4.107-6.192-5.737-5.932-.391 1.043-.391 1.043z"></path><path d="M130.458 81.753c-.912-2.868-1.76-5.8-2.737-8.67-1.826-5.671-3.846-11.994-5.932-17.665-3.325.717-7.04 1.629-10.691 1.3 2.217 10.494 4.433 20.989 6.714 31.419.261 1.108.652 4.172.066 4.628 1.043.391 13.1-3.715 13.493-4.693.782-1.626-.196-4.172-.913-6.319zm-5.606-4.433a1.948 1.948 0 0 1-1.238 1.239 3.339 3.339 0 0 1-2.868-1.5 13.75 13.75 0 0 1-2.021-3.586 13.036 13.036 0 0 1-.913-4.237 3.253 3.253 0 0 1 1.3-2.933 2.871 2.871 0 0 1 3.194.912c2.416 2.478 3.524 7.885 2.546 10.105z" fill="#ffd340"></path><path d="m111.163 56.722-.847 3.194s4.889 22.619 5.345 26.27a20.01 20.01 0 0 1 0 6.192 14.629 14.629 0 0 0 2.151.391c.587 0 .978-.326-.065-5.149s-6.584-30.898-6.584-30.898z"></path><path d="m88.022 90.488-19.816 5.475-11.668-8.017v-.913l31.484 2.607v.848z" fill="#f7f6fa"></path><path d="m56.538 87.033 11.668 8.083 19.816-5.476-12.841-6.062-18.643 3.455z" fill="#f5f4fa"></path><path d="m60.514 87.75 14.602-2.868 8.669 4.432-.391.066-8.278-4.368-14.276 2.934-.326-.196z" fill="#f7f6fa"></path><path d="M67.945 117.214a1.727 1.727 0 0 1-.782-.2 2.892 2.892 0 0 1-1.173-1.173 18.2 18.2 0 0 1-2.09-5.141 53.643 53.643 0 0 1-1.434-7.17 13.4 13.4 0 0 1 .065-5.345 5.956 5.956 0 0 1 3.455-4.237l.326.912a4.992 4.992 0 0 0-2.869 3.585 14.427 14.427 0 0 0-.065 5.02 63.926 63.926 0 0 0 1.369 7.04 17.441 17.441 0 0 0 1.956 4.889 1.8 1.8 0 0 0 .782.782c.717.326 1.63-.391 2.281-1.173 2.347-3 3.586-6.78 4.5-10.039l.065-.13a9.831 9.831 0 0 1 1.565-3.716c1.369-1.695 3.911-2.542 6.844-2.151a21.113 21.113 0 0 1 3.52.782 30.189 30.189 0 0 0 3.325.717c3.65.522 7.3-.521 10.69-1.629a16 16 0 0 0 5.737-2.934c.978-.912 1.76-2.281 1.238-3.389a3.866 3.866 0 0 0-1.564-1.5 4.935 4.935 0 0 1-1.434-1.173q-1.467-1.564-1.174-4.889a5.05 5.05 0 0 1 .131-.978 11.05 11.05 0 0 0 0-3.585 4.043 4.043 0 0 0-2.934-3l.2-.977a4.917 4.917 0 0 1 3.716 3.715 11.677 11.677 0 0 1 .065 3.977 4.31 4.31 0 0 0-.065.912c-.2 1.891.13 3.259.912 4.107a6.3 6.3 0 0 0 1.239.978 5.252 5.252 0 0 1 1.89 1.89c.782 1.7-.326 3.52-1.5 4.563a17.279 17.279 0 0 1-6.128 3.194c-3.52 1.174-7.3 2.216-11.146 1.695a20.369 20.369 0 0 1-3.458-.786 20.927 20.927 0 0 0-3.39-.717c-2.542-.326-4.824.326-5.932 1.76a9.429 9.429 0 0 0-1.369 3.324l-.065.131c-.913 3.389-2.151 7.3-4.693 10.429a3.451 3.451 0 0 1-2.606 1.63z" fill="#f7f6fa"></path><path d="M99.365 77.907c.065-.782.2-1.565.326-2.347a1.606 1.606 0 0 1 1.238.261 1.34 1.34 0 0 1 .522 1.173 1.3 1.3 0 0 1-.848.978 1.393 1.393 0 0 1-1.238-.065z" fill="#f7f6fa"></path><path d="m97.164 78.082.3-2.459.97.119-.3 2.458zm-2.298.746.418-2.903.968.14-.418 2.902zm-3.919-.58 2.043-.42.197.957-2.043.42zm12.199-1.058-.261-.978 1.173-.2.065.977z"></path><path d="M70.487 182.856a22.921 22.921 0 0 1-11.407-7.627 22.492 22.492 0 0 1-5.019-12.646 139.072 139.072 0 0 1-19.361 3.064 33.4 33.4 0 0 0 2.608 17.47c2.607 5.345 7.235 9.908 12.972 11.538a49.26 49.26 0 0 0 20.207-11.799z" fill="#f5f4fa"></path><path d="M60.905 181.813c-5.606-2.412-12.19-6.779-14.862-12.32a41.966 41.966 0 0 0 1.369 18.643c5.088-2.021 9.388-4.436 13.493-6.323z" fill="#ffffff"></path><path d="M56.277 186.9c-5.28-2.934-9-6.845-14.08-7.757a19.128 19.128 0 0 1 9.712 1.76 13.171 13.171 0 0 1 3.912-6.91c-2.412 4.039-2.608 10.036.456 12.907z"></path><path d="M135.021 180.249a21.542 21.542 0 0 1-2.477-1.76c-.065.195-.13.26-.2.456a25.4 25.4 0 0 1 2.086 1.63 2.606 2.606 0 0 1 .591-.326zm-4.889-1.5-3.324-.782v-.195l3.39.717-.066.26zm3.912 6.651-.131-.195a4.251 4.251 0 0 0 1.695-1.434 2.1 2.1 0 0 0 .261-2.021l.195-.13a2.422 2.422 0 0 1-.26 2.281 6.014 6.014 0 0 1-1.76 1.499z" fill="#ffffff"></path><path d="m133.066 185.92 1.043-1.76.195.13-.782 1.304 1.173-.13.066.195-1.695.261zm-3.129 3.324a30.611 30.611 0 0 0-2.477-2.542l.2-.195a23.386 23.386 0 0 1 2.543 2.542zm-.196-1.369a6.217 6.217 0 0 1-1.369-1.238l.2-.2a7.276 7.276 0 0 0 1.3 1.174zm-1.034-1.797.189-.18 1.123 1.181-.189.18zm3.251 1.602c-.652-.848-1.3-1.63-2.021-2.412l.195-.2a36.015 36.015 0 0 1 2.021 2.412zm-8.54-5.932-.26-.065a15.8 15.8 0 0 0 .326-3.064h.26a16.959 16.959 0 0 1-.326 3.129zm.717-.456-.26-.066a8.7 8.7 0 0 0 .195-1.825h.261c-.065.652-.131 1.239-.196 1.891zm.105.793.19-1.421.26.035-.19 1.42zm5.371-2.227-.2-.131a5.188 5.188 0 0 1 1.109-.978l-1.043-.912.195-.2 1.239 1.108-.131.066a6.073 6.073 0 0 0-1.169 1.047zm11.277 2.151a9.584 9.584 0 0 1-2.347-.261l.066-.261a8.422 8.422 0 0 0 2.868.261v.261a1.779 1.779 0 0 0-.587 0zm-.326.456a3.776 3.776 0 0 1-1.238-.2l.065-.26a4.971 4.971 0 0 0 1.369.2v.261zm-21.902 1.825a1.714 1.714 0 0 1-1.3-.521 1.861 1.861 0 0 1-.065-2.217 3.013 3.013 0 0 1 1.63-1.368l.065.26a2.949 2.949 0 0 0-1.5 1.3 1.777 1.777 0 0 0 0 1.956 1.577 1.577 0 0 0 1.109.456 3.505 3.505 0 0 0 2.477-1.3 1.833 1.833 0 0 0 .391-1.5 2.172 2.172 0 0 0-1.76-1.63l.065-.261a2.359 2.359 0 0 1 1.956 1.891 2.331 2.331 0 0 1-.457 1.695 3.206 3.206 0 0 1-1.371 1.049 3.8 3.8 0 0 1-1.24.19zm-5.28-2.151h2.216v.261h-2.216z" fill="#ffffff"></path><path d="m115.466 182.921-.196-.13.522-.652-.652-.261.13-.195.913.391-.717.847zm-61.21-10.495c-.782-1.108-1.564-2.281-2.347-3.389l.2-.131c.782 1.109 1.564 2.282 2.347 3.39z" fill="#ffffff"></path><path d="m54.843 173.143-.2-.065a9.586 9.586 0 0 1-1.89-.782l.13-.2a5.55 5.55 0 0 0 1.7.718l-.065-1.63h.261zm-17.535.066-.2-.131a50.694 50.694 0 0 1 5.15-6.062l.2.2a40.9 40.9 0 0 0-5.15 5.993zm1.629-.848-.2-.13a10.19 10.19 0 0 1 1.043-1.3l.2.2c-.391.383-.717.839-1.043 1.23zm-1.062 2.204 3.042-3.827.204.162-3.041 3.828zM40.5 173.4l-.2-.13a48.696 48.696 0 0 1 2.412-2.8l.2.195A19.09 19.09 0 0 0 40.5 173.4zm17.667 11.412v-.261a12.4 12.4 0 0 0 5.215-1.76l.131.195a13.059 13.059 0 0 1-5.346 1.826zm2.086.26-.065-.26a9.278 9.278 0 0 0 2.347-.913l.13.2a6.491 6.491 0 0 1-2.412.973z" fill="#ffffff"></path></g></svg>